<svg xmlns="http://www.w3.org/2000/svg" width="256" height="256"><path fill-opacity=".016" d="M0 128.004v128.004l128.25-.254 128.25-.254.254-127.75L257.008 0H0v128.004m.485.496c0 70.4.119 99.053.265 63.672.146-35.38.146-92.98 0-128C.604 29.153.485 58.1.485 128.5" fill="#1976D2" fill-rule="evenodd"/><path fill-opacity=".199" d="M108.814 1.013c-31.855 5.038-61.92 22.578-81.273 47.414C15.59 63.765 7.738 80.004 2.846 99.5.249 109.851-.753 134.421.947 146.049c7.174 49.065 41.641 89.532 88.882 104.355 18.031 5.658 41.443 7.244 59.79 4.05 50.392-8.77 90.197-45.999 102.996-96.332 1.312-5.158 2.385-10.896 2.385-12.75 0-1.855.45-3.372 1-3.372.624 0 .994-5.74.985-15.25-.009-8.388-.368-14.695-.799-14.017-.455.717-1.258-2.008-1.916-6.5-6.288-42.935-40.131-83.528-82.27-98.68-14.99-5.39-22.385-6.681-40.5-7.072-9.35-.202-19.559.037-22.686.532m5.472 11.019C63.73 18.391 24.312 54.922 13.43 105.5c-2.35 10.924-2.35 34.076 0 45 7.852 36.494 30.566 66.119 63.07 82.26 16.09 7.99 31.905 11.531 51.5 11.531 15.61 0 24.523-1.406 38-5.997 28.468-9.696 52.69-30.921 65.958-57.794 9.061-18.351 12.403-32.5 12.403-52.5s-3.342-34.149-12.403-52.5c-15.789-31.979-45.397-54.44-81.681-61.964-9.314-1.931-26.791-2.661-35.991-1.504M117 44.213c-38.513 23.336-78.898 48.38-80.75 50.076-4.043 3.701-2.66 10.47 2.582 12.641 3.6 1.491 6.411.437 17.707-6.639 15.956-9.995 67.994-41.577 70.057-42.517 1.758-.801 3.904.149 12.513 5.531 13.036 8.152 63.93 39.159 69.669 42.447 4.838 2.771 7.974 2.504 11.194-.953 2.496-2.678 2.61-6.858.268-9.751-.969-1.196-6.706-5.189-12.75-8.874l-10.99-6.699-.277-14.738L195.947 50H177v8.5c0 4.675-.22 8.5-.49 8.5-.269 0-3.532-1.936-7.25-4.302-19.7-12.536-39.186-23.694-41.332-23.667-1.335.017-6.253 2.349-10.928 5.182M82.42 98.885C73.076 104.583 77.202 119 88.177 119c3.242 0 4.683-.66 7.423-3.4 5.237-5.237 4.406-12.797-1.825-16.596-4.094-2.496-7.4-2.53-11.355-.119m76.901 3.728c-3.103 1.531-6.321 6.538-6.321 9.838 0 2.535 2.738 7.252 5.217 8.988 4.578 3.207 12.222 1.473 15.118-3.429 3.332-5.641 1.36-12.565-4.434-15.561-3.546-1.834-5.599-1.799-9.58.164M.402 128c0 8.525.154 12.012.341 7.75.188-4.262.188-11.237 0-15.5-.187-4.263-.341-.775-.341 7.75m77.907-5.409c-5.134 1.882-10.811 7.955-12.237 13.088-.583 2.102-1.063 9.908-1.066 17.348-.005 10.632.327 14.004 1.551 15.75 1.724 2.462 5.599 2.945 7.289.908.624-.751 1.226-6.856 1.405-14.25.173-7.114.412 2.827.532 22.092.185 29.842.447 35.357 1.774 37.25 1.777 2.538 5.163 2.879 8.002.805 1.787-1.305 1.984-3.144 2.488-23.25l.546-21.832.204 21.679c.17 18.187.456 21.931 1.774 23.25 2.108 2.107 5.743 1.987 7.774-.258 1.465-1.619 1.68-5.888 1.872-37.25.12-19.481.359-29.6.532-22.486.179 7.394.781 13.499 1.405 14.25 1.507 1.816 5.371 1.647 7.339-.321 1.41-1.41 1.592-3.932 1.321-18.327-.304-16.186-.395-16.815-2.998-20.743-5.148-7.771-19.268-11.457-29.507-7.703m74.695 3.701c-3.6 1.822-6.359 7.521-10.507 21.708-4.238 14.495-4.859 20.669-2.247 22.358 3.16 2.044 5.098-.551 8.912-11.931 2.014-6.01 3.701-10.216 3.75-9.347.048.869-2.387 9.383-5.412 18.92-3.025 9.537-5.5 17.938-5.5 18.67 0 .945 1.59 1.33 5.5 1.33h5.5v12.277c0 13.434 1.069 16.723 5.434 16.723 4.277 0 5.057-2.359 5.189-15.692.067-6.813.405-12.669.75-13.014.345-.345.627 5.433.627 12.839 0 14.224.479 15.867 4.629 15.867 4.654 0 5.371-2.146 5.371-16.071V188h6c3.3 0 6-.172 6-.381 0-.21-2.475-8.098-5.5-17.529-3.025-9.432-5.472-18.148-5.437-19.369.035-1.222 1.307 1.829 2.827 6.779 3.376 10.996 4.664 13.5 6.945 13.5 5.136 0 5.304-4.587.752-20.553-4.566-16.015-6.26-19.994-9.774-22.951-2.695-2.268-3.806-2.495-12.14-2.481-5.373.008-10.207.537-11.669 1.277m-33.647 31.285a5.777 5.777 0 0 0 8.066 8.066c1.762-1.155 2.577-2.582 2.577-4.511 0-5.906-7.468-8.4-10.643-3.555m-3.809 13.33c-2.261 4.372-5.791 18.018-5.116 19.777.368.959 1.344 1.346 2.58 1.023 2.382-.623 2.386-.595.488 3.947-2.197 5.259-1.94 6.346 1.5 6.346h3v7.031c0 7.601 1.353 9.478 5.132 7.118 1.281-.799 1.868-.827 1.868-.088 0 .593 1.013.934 2.25.759 2.065-.294 2.274-.917 2.544-7.57l.294-7.25h2.956c3.414 0 3.602-.916 1.445-7.03-.831-2.355-1.281-4.512-1-4.793.281-.281.511.015.511.656 0 .642.9 1.167 2 1.167 2.667 0 2.642-3.682-.088-12.645C132.58 168.412 132.148 168 124.003 168c-6.663 0-7.014.121-8.455 2.907" fill="#1976D2" fill-rule="evenodd"/><path fill-opacity=".502" d="M108 1.651C90.523 4.326 71.676 11.808 56 22.293 46.364 28.739 28.739 46.364 22.293 56c-29.533 44.153-29.533 99.847 0 144 6.446 9.636 24.071 27.261 33.707 33.707 44.153 29.533 99.847 29.533 144 0 9.636-6.446 27.261-24.071 33.707-33.707 10.405-15.557 18.137-34.97 20.312-51 .634-4.675 1.564-9.281 2.067-10.236 1.115-2.119 1.232-23.079.125-22.395-.433.268-1.35-3.634-2.036-8.672-2.258-16.584-9.913-35.916-20.468-51.697-6.446-9.636-24.071-27.261-33.707-33.707-27.357-18.299-59.783-25.574-92-20.642m3.52 10.464C66.903 18.612 28.681 51.42 15.959 94.138 3.522 135.9 14.624 179.723 45.451 210.549c46.051 46.052 119.047 46.052 165.098 0 22.256-22.255 34.411-51.415 34.411-82.549 0-64.784-53.267-117.554-117.96-116.858-5.225.056-12.191.494-15.48.973M111 48.309C73.246 70.979 37.358 93.342 35.75 95.2c-2.325 2.686-2.21 5.945.323 9.165 3.007 3.823 7.164 3.475 14.99-1.257 3.54-2.14 22.35-13.597 41.8-25.458l35.363-21.567 5.637 3.612c3.1 1.986 18.012 11.124 33.137 20.306 15.125 9.181 31.287 19.012 35.915 21.846 9.864 6.04 13.786 6.62 17.012 2.518 4.449-5.655 2.21-8.911-12.099-17.593L196 79.595V50h-19v8.5c0 4.675-.265 8.5-.59 8.5-.324 0-10.112-5.785-21.75-12.855C130.812 39.658 129.645 39 127.816 39.001c-.724.001-8.291 4.189-16.816 9.308m-26.009 49.89c-4.857 1.797-6.994 4.783-6.959 9.725.034 4.86.969 6.635 4.941 9.372 5.358 3.693 13.089.566 15.088-6.104.981-3.276.897-4.479-.523-7.471-.931-1.961-2.445-3.873-3.365-4.248-4.337-1.767-6.891-2.121-9.182-1.274m71.932 6.724c-4.322 4.322-4.135 10.065.477 14.677 5.101 5.101 11.855 4.31 15.596-1.825 2.979-4.886 2.583-8.396-1.396-12.375-4.612-4.612-10.355-4.799-14.677-.477M.378 128c0 6.325.163 8.912.361 5.75.198-3.163.198-8.338 0-11.5-.198-3.163-.361-.575-.361 5.75m81.34-5.956c-5.824 1.444-9.353 3.612-12.416 7.624-2.787 3.649-2.804 3.764-3.117 21.07-.225 12.376.027 17.813.872 18.831 1.464 1.763 5.538 1.875 6.634.181.445-.687 1.059-7.325 1.365-14.75.369-8.983.62-1.895.75 21.185.106 19.077.618 35.801 1.137 37.164 1.251 3.292 4.51 4.239 7.606 2.211L87 213.954v-21.977c0-13.985.364-21.977 1-21.977s1 7.981 1 21.943c0 21.542.041 21.972 2.223 23.5 2.937 2.058 4.37 1.964 6.777-.443 1.918-1.918 2.008-3.471 2.194-37.75.127-23.288.389-31.044.75-22.25.306 7.425.92 14.063 1.365 14.75 1.029 1.59 4.921 1.62 6.491.05 1.829-1.829 1.654-34.027-.205-37.6-4.177-8.028-16.572-12.712-26.877-10.156m71.703 4.375c-3.57 1.554-5.033 4.341-9.232 17.581-6.461 20.373-7.095 25.054-3.578 26.404 3.268 1.254 5.074-1.282 7.907-11.107 3.329-11.542 4.408-13.993 4.452-10.114.016 1.475-2.445 10.518-5.47 20.095-3.025 9.577-5.5 17.708-5.5 18.068 0 .36 2.7.654 6 .654h6v12.929c0 10.419.305 13.233 1.571 14.5 1.995 1.994 3.863 1.994 5.858 0 1.266-1.267 1.571-4.081 1.571-14.5 0-7.953.385-12.929 1-12.929s1 4.948 1 12.845c0 11.174.238 13.06 1.829 14.5 2.39 2.163 3.738 2.088 6.171-.345 1.787-1.787 2-3.333 2-14.5V188h5.5c4.012 0 5.5-.374 5.5-1.381 0-.76-2.475-9.098-5.5-18.529-3.025-9.432-5.486-18.373-5.47-19.869.045-4.015 1.26-1.348 4.454 9.779 3.135 10.922 5.142 13.806 8.394 12.065 2.951-1.579 2.733-4.5-1.425-19.107-4.961-17.424-7.502-22.663-11.881-24.493-4.386-1.832-16.986-1.86-21.151-.046M121.4 155.765c-.605.404-1.65 1.778-2.321 3.052-1.002 1.902-.935 2.753.373 4.75C122.307 167.924 130 166 130 160.929c0-3.925-5.506-7.23-8.6-5.164m-4.692 14.005c-2.425 2.68-7.198 20.14-5.868 21.47 1.616 1.616 3.988-.808 4.747-4.852.352-1.875 1.057-3.668 1.566-3.983 1.124-.694.33 2.73-2.732 11.788l-2.263 6.692 3.171.308 3.171.307.301 7c.354 8.237 1.504 10.024 4.27 6.639 1.396-1.708 1.929-1.932 1.929-.809 0 2.208 1.834 3.053 3.544 1.634 1.016-.844 1.456-3.285 1.456-8.086V201h3c1.65 0 3-.146 3-.325 0-.179-1.054-3.441-2.342-7.25-2.907-8.597-4.055-13.155-3.063-12.163.417.417 1.467 2.861 2.332 5.432 1.63 4.842 3.65 6.572 4.645 3.978.838-2.184-3.464-17.265-5.756-20.179-1.686-2.143-2.772-2.493-7.734-2.493-4.252 0-6.194.466-7.374 1.77" fill="#1976D2" fill-rule="evenodd"/><path fill-opacity=".441" d="M115.265.972C58.709 7.383 14.59 47.541 2.881 103.266c-3 14.276-3 35.192 0 49.468 9.453 44.987 39.981 80.207 82.885 95.624 26.059 9.363 58.409 9.363 84.468 0 42.78-15.373 73.728-51.007 82.75-95.281 1.109-5.44 2.016-11.931 2.016-14.425 0-2.494.45-4.812 1-5.152.55-.34 1-3.318 1-6.618 0-3.745-.376-5.768-1-5.382-.612.378-1-1.187-1-4.034 0-2.558-.907-9.103-2.016-14.543-10.305-50.571-49.425-89.729-99.75-99.849C141.643.743 125.278-.163 115.265.972M104 13.128C71.406 19.943 42.935 40.812 25.73 70.5c-16.759 28.919-19.544 68.452-7.043 100 6.591 16.634 14.769 28.797 27.959 41.581C69.467 234.198 96.162 245 128 245c33.32 0 61.371-12.007 84.615-36.22C234.335 186.157 245 159.554 245 128c0-31.554-10.665-58.157-32.385-80.78-17.425-18.152-37.485-29.335-61.272-34.16-13.633-2.765-33.931-2.736-47.343.068m-3.5 41.808C87.3 63.037 68.175 74.752 58 80.971c-10.175 6.218-19.513 12.222-20.75 13.342-4.452 4.029-1.71 12.715 4 12.669 2.918-.024 5.323-1.403 49.559-28.42l37.31-22.787 5.19 3.251c2.855 1.789 15.991 9.789 29.191 17.779s29.344 17.865 35.875 21.944c6.532 4.08 13.344 7.656 15.138 7.947 4.303.698 7.487-2.324 7.487-7.107 0-4.103-1.709-5.645-15.384-13.881L196 79.917V50H177.075l-.287 8.918-.288 8.918-22.783-13.918c-17.547-10.72-23.521-13.894-26-13.815-2.281.074-10.198 4.388-27.217 14.833m-19.394 45.965c-6.791 6.344-2.322 17.136 7.067 17.067 6.566-.048 9.827-3.525 9.827-10.479 0-2.693-.762-4.405-2.923-6.566-4.066-4.066-9.633-4.074-13.971-.022m78.004 2.44c-5.717 3.299-6.803 11.119-2.187 15.736 5.83 5.83 15.868 3.026 17.374-4.852.59-3.086-1.193-8.066-3.603-10.065-2.373-1.968-8.804-2.423-11.584-.819M.32 128c0 3.575.182 5.037.403 3.25.222-1.787.222-4.713 0-6.5-.221-1.787-.403-.325-.403 3.25m75.617-3.236c-3.957 2.067-5.876 3.871-7.614 7.157-2.145 4.058-2.323 5.593-2.323 20.081 0 13.928.205 15.874 1.829 17.343 2.502 2.265 3.846 2.08 5.724-.785 1.278-1.951 1.548-4.796 1.346-14.191-.179-8.317.092-11.866.924-12.143.888-.296 1.177 8.422 1.177 35.491 0 26.576.311 36.194 1.2 37.083 1.901 1.901 6.592 1.458 7.765-.734.619-1.158 1.035-10.391 1.035-23 0-11.619.399-21.066.889-21.066 1.704 0 2.276 7.533 1.945 25.654-.359 19.746-.124 20.738 4.771 20.174 5.124-.59 5.348-2.192 5.562-39.828.131-23.165.383-30.158.764-21.283.618 14.346 1.683 17.175 5.955 15.819 2.982-.946 3.297-3.213 2.935-21.136-.301-14.916-.47-16.108-2.722-19.266-5.774-8.096-20.941-10.709-31.162-5.37m75.737 3.278c-4.084 3.213-14.094 35.815-12.373 40.3.749 1.951 4.021 2.196 5.46.408.827-1.027 3.05-7.827 6.867-21 .279-.963.851-1.75 1.272-1.75 1.51 0-.891 10.769-5.742 25.75L142.22 187H154v13.3c0 13.959.499 15.7 4.5 15.7 3.975 0 4.5-1.767 4.5-15.141 0-7.415.418-12.999 1-13.359.55-.34 1.067-.479 1.149-.309.082.17.42 6.609.75 14.309l.601 14h7l.5-14 .5-14 5.801-.301c5.463-.284 5.761-.43 5.113-2.5-.378-1.21-2.876-9.084-5.551-17.498C175.3 152.847 173.978 146 175.769 146c.423 0 1.836 3.938 3.14 8.75 3.59 13.255 4.568 15.25 7.473 15.25 3.889 0 4.006-2.89.627-15.468-5.253-19.551-7.851-25.683-11.604-27.393-1.375-.627-6.692-1.139-11.817-1.139-7.868 0-9.722.318-11.914 2.042M120.2 157.2c-1.547 1.547-1.547 6.053 0 7.6.66.66 2.37 1.2 3.8 1.2 3.305 0 5-1.695 5-5 0-3.305-1.695-5-5-5-1.43 0-3.14.54-3.8 1.2m-2.61 12.111c-2.468 1.805-7.665 19.718-6.245 21.529 1.381 1.763 3.374-.824 4.256-5.525.649-3.46 2.399-5.584 2.399-2.912 0 .836-1.119 5.025-2.487 9.309-1.368 4.283-2.493 8.126-2.5 8.538-.007.412 1.337.75 2.987.75h3v7.5c0 6.833.178 7.5 2 7.5s2-.667 2-7.5c0-9.609 1.818-9.824 2.206-.261.239 5.884.613 7.301 1.999 7.565 1.46.279 1.747-.725 2-6.989l.295-7.315 3.127-.304 3.127-.304-2.877-8.946c-2.808-8.731-3.606-13.009-2.158-11.561.395.396 1.424 3.058 2.285 5.917 1.762 5.844 4.699 7.375 4.217 2.198-.504-5.412-4.263-16.542-6.262-18.541-2.323-2.323-10.535-2.721-13.369-.648" fill="#1976D2" fill-rule="evenodd"/></svg>