<svg xmlns="http://www.w3.org/2000/svg" width="256" height="256"><path fill="#1976D2" fill-opacity=".016" fill-rule="evenodd" d="M0 128.004v128.004l128.25-.254 128.25-.254.254-127.75L257.008 0H0zm.485.496c0 70.4.119 99.053.265 63.672s.146-92.98 0-128S.485 58.1.485 128.5"/><path fill="#1976D2" fill-opacity=".139" fill-rule="evenodd" d="M84.793 70.817c-22.311 14.861-41.292 28.057-42.179 29.324-1.76 2.512-2.127 8.499-.665 10.811.735 1.161 9.107-4.003 41.747-25.75C115.933 63.724 125.2 58 127.736 58c2.534 0 11.759 5.694 43.788 27.028 22.317 14.865 41.004 26.764 41.526 26.441s.95-2.832.95-5.576c0-6.114-.565-6.697-16.97-17.498L185.038 80.5l-.019-14.215C184.997 49.866 185.075 50 175.5 50c-8.778 0-9.5.725-9.5 9.535 0 4.106-.244 7.465-.543 7.465-.298 0-7.952-4.979-17.008-11.064-9.562-6.425-17.854-11.29-19.778-11.602-3.02-.49-6.887 1.844-43.878 26.483m42.416 8.795c-8.964 4.569-11.468 16.199-4.983 23.143 7.105 7.608 17.611 6.793 24.02-1.862 2.429-3.28 2.633-10.292.424-14.565-3.517-6.801-12.925-10.048-19.461-6.716M98.121 90.654C85.749 96.954 90.542 116 104.5 116c10.159 0 16.44-10.155 11.967-19.349-3.219-6.617-11.69-9.386-18.346-5.997m27.379 21.225c-2.2 1.071-5.35 3.096-7 4.501l-3 2.555 3.5 2.777c8.949 7.1 13.676 14.898 14.644 24.155.537 5.135.346 6.143-1.515 8.004-1.171 1.171-3.254 2.129-4.629 2.129-3.176 0-3.144.721.516 11.548 3.162 9.353 3.212 11.504.265 11.373-1.047-.046-1.266-.287-.531-.583 1.941-.784 1.6-2.509-3.788-19.149-2.77-8.557-4.866-16.263-4.656-17.124s1.208 1.275 2.219 4.747c2.088 7.172 4.243 9.07 8.235 7.251 2.376-1.082 2.481-1.47 2.007-7.382-.287-3.566-1.449-8.097-2.712-10.574-4.555-8.928-17.251-18.119-25.001-18.097-4.205.011-12.232 3.564-16.835 7.45-5.038 4.253-9.068 10.79-10.786 17.493-1.719 6.711-1.296 9.515 1.672 11.103 3.449 1.846 5.669.224 7.329-5.355.852-2.861 2.029-5.876 2.618-6.701 1.846-2.589.107 4.101-5.132 19.738C77.372 178.299 77.456 179 84.978 179h4.732l.683 14.75c.611 13.224.897 14.931 2.755 16.5 2.707 2.284 5.121 2.215 7.315-.209 1.389-1.535 1.898-4.41 2.348-13.25.459-9.029.725-10.49 1.324-7.291.412 2.2.776 7.262.807 11.25.062 7.716 1.905 11.25 5.867 11.25 4.488 0 5.512-2.21 6.306-13.617.417-5.986.787-12.795.822-15.133.047-3.156.464-4.25 1.622-4.25.962 0 1.274.462.814 1.205-.409.663-.649 7.053-.532 14.201.234 14.352 1.078 16.594 6.243 16.594 4.851 0 5.668-1.898 6.551-15.233l.812-12.267.655 12.251c.394 7.37 1.151 12.849 1.899 13.75 1.52 1.831 7.357 1.977 8.815.221 1.546-1.863 2.697-16.287 1.365-17.11-.744-.46-.633-2.103.363-5.387 1.853-6.105 1.85-9.225-.009-9.225-4.088 0-3.774-10.047.502-16.053 1.654-2.322 1.98-4.54 2.069-14.101.087-9.262.306-10.841 1.193-8.596 1.319 3.338 1.927 3.432 3.214.5.543-1.238 2.44-2.925 4.215-3.75 1.776-.825 3.238-2.259 3.25-3.186.042-3.257-8.401-14.037-14.205-18.137-7.095-5.012-14.674-6.009-21.273-2.798m30.701 26.149c-4.962 4.623-3.231 13.106 3.015 14.774l3.284.878-3.133.714c-4.069.927-10.667 6.612-12.737 10.974-3.24 6.828-1.274 14.071 2.883 10.621 1.847-1.533 1.869-1.791-.513 6.011-2.721 8.912-2.627 10 .869 10 2.539 0 2.941.432 3.489 3.75.341 2.063.625 6.09.631 8.95.008 3.876.45 5.446 1.735 6.166 2.538 1.42 5.263-.441 5.346-3.651.039-1.493.457-3.615.93-4.715.648-1.508.877-.839.93 2.715.051 3.444.549 4.971 1.846 5.665 2.942 1.575 5.223-.465 5.233-4.68.004-2.035.292-6.063.639-8.95.593-4.934.799-5.25 3.432-5.25 1.541 0 3.03-.369 3.308-.819.279-.451-.595-4.388-1.941-8.75-2.851-9.24-2.876-9.399-1.092-6.96.84 1.149 1.99 1.611 3.023 1.214 6.356-2.439-.705-16.711-10.656-21.537-2.354-1.142-3.427-2.07-2.427-2.098 3.167-.088 6.705-4.6 6.705-8.55 0-7.371-9.415-11.488-14.799-6.472m15.53 33.052c.354 1.352.807 1.806 1.057 1.057.24-.722-.038-1.787-.62-2.369-.742-.742-.872-.351-.437 1.312m-20.652 1.503c.048 1.165.285 1.402.604.605.289-.722.253-1.585-.079-1.917s-.568.258-.525 1.312"/><path fill="#1976D2" fill-opacity=".333" fill-rule="evenodd" d="M85.045 70.983c-21.456 14.29-39.918 26.89-41.028 28-1.466 1.466-2.017 3.336-2.017 6.85 0 2.659.272 5.105.604 5.437.332.333 18.183-11.121 39.67-25.453 21.486-14.331 40.378-26.608 41.98-27.282 1.603-.674 3.993-1.019 5.31-.768 1.317.252 20.477 12.539 42.579 27.304 22.101 14.765 40.56 26.612 41.02 26.328 1.641-1.014.886-9.067-1.084-11.572-1.057-1.344-7.582-6.192-14.5-10.775L185 80.72V67.06c0-9.291-.384-14.044-1.2-14.86-1.593-1.593-15.007-1.593-16.6 0-.714.714-1.2 4.157-1.2 8.509v7.308l-17.246-11.508C134.467 46.974 130.87 45 127.782 45c-3.205 0-9.18 3.632-42.737 25.983m38.762 11.856c-3.65 3.404-4.165 4.452-4.55 9.25-.36 4.479-.029 6.014 1.924 8.911 2.708 4.018 7.957 6.996 12.335 6.998 4.208.003 9.555-3.078 12.323-7.1 1.937-2.813 2.264-4.329 1.904-8.809-.385-4.798-.9-5.846-4.55-9.25C139.44 79.338 138.587 79 133.5 79s-5.94.338-9.693 3.839M99.02 90.716c-1.914.981-4.502 3.313-5.75 5.182-8.614 12.894 9.898 27.225 20.385 15.781 4.227-4.612 5.133-9.422 2.698-14.321-3.493-7.029-10.98-9.898-17.333-6.642m26.48 21.729c-2.75 1.425-6.111 3.522-7.469 4.661-2.371 1.987-2.393 2.112-.556 3.14 4.077 2.282 10.29 8.907 12.969 13.829 3.643 6.693 4.724 16.977 2.091 19.887-.958 1.058-3.077 2.218-4.709 2.576-1.643.361-2.773 1.167-2.532 1.807.239.635 1.703 5.06 3.253 9.833 3.366 10.364 2.834 11.822-4.309 11.822h-4.518l.51 14.168c.548 15.254 1.149 16.832 6.404 16.832 3.625 0 5.352-3.615 5.483-11.473.064-3.865.446-9.952.847-13.527l.731-6.5.224 7c.443 13.862 1.595 22.581 3.112 23.54 2.321 1.468 5.523 1.116 7.191-.79 1.655-1.892 3.059-15.53 1.743-16.938-.417-.447-.184-3.512.517-6.812 1.243-5.848 1.215-6.046-1.103-7.833-3.288-2.534-3.087-7.119.621-14.167 2.784-5.293 3.008-6.504 3.106-16.852.087-9.119.305-10.647 1.193-8.398q1.907 4.83 3.17.846c.333-1.046 2.163-2.643 4.068-3.546 1.905-.904 3.463-1.866 3.463-2.137 0-1.73-4.791-9.316-8.264-13.083-8.892-9.648-18.477-12.422-27.236-7.885m-27.939 7.178c-3.702 1.16-6.604 3.216-11.592 8.212-7.421 7.433-10.325 13.775-9.779 21.355.28 3.892.582 4.341 3.12 4.632 3.383.388 5.681-1.298 5.716-4.194.015-1.171.878-3.928 1.919-6.128 3.797-8.024 2.204.629-2.945 16-2.75 8.209-5 15.729-5 16.713 0 1.493.879 1.787 5.352 1.787h5.352l.642 8.25c.353 4.537.645 10.808.648 13.935.009 8.408 1.202 10.815 5.359 10.815 1.871 0 3.877-.573 4.458-1.272s1.377-7.459 1.769-15.02c.392-7.562.963-13.499 1.268-13.193.306.305.875 6.408 1.265 13.561.42 7.685 1.206 13.603 1.921 14.465 1.494 1.8 6.345 1.912 7.782.181.819-.987 3.157-23.39 3.18-30.472.003-.848 1.773-1.25 5.504-1.25 3.819 0 5.5-.394 5.5-1.287 0-.709-2.25-8.004-5-16.213-5.051-15.078-6.394-21.922-3.57-18.198.752.992 1.678 3.467 2.058 5.5.864 4.626 2.136 6.198 5.012 6.198 3.582 0 4.85-2.4 4.194-7.94-.788-6.646-4.594-13.792-10.005-18.779-8.547-7.878-15.938-10.224-24.128-7.658m58.795 18.747c-5.924 5.096-1.941 14.63 6.111 14.63 2.519 0 4-.767 5.944-3.077 3.393-4.032 3.291-7.375-.334-11-3.646-3.646-7.892-3.846-11.721-.553m2.466 16.635c-1.473.431-4.263 1.992-6.2 3.47-6.642 5.066-10.005 16.613-5.044 17.322 1.664.238 2.324-.527 3.319-3.847.683-2.28 1.482-3.905 1.775-3.611.294.293-.863 5.23-2.569 10.971-1.707 5.74-3.103 10.944-3.103 11.564s1.572 1.126 3.5 1.126h3.5v8.378c0 8.824 1.043 11.142 4.702 10.444 1.467-.28 1.902-1.671 2.361-7.562.764-9.809 1.937-10.351 1.937-.895 0 6.204.317 7.82 1.636 8.326 3.311 1.27 4.851-1.074 5.12-7.795.38-9.496.867-10.896 3.794-10.896 1.382 0 2.756-.633 3.053-1.407.297-.775-.842-5.887-2.532-11.361-3.347-10.849-3.503-11.617-2.184-10.802.487.301 1.183 2.128 1.545 4.059.541 2.882 1.098 3.511 3.113 3.511 2.173 0 2.453-.431 2.439-3.75-.022-5.007-3.599-11.057-8.492-14.364-4.671-3.156-7.958-3.967-11.67-2.881"/><path fill="#1976D2" fill-opacity=".632" fill-rule="evenodd" d="M124 45.73c-2.113.806-75.51 49.987-79.071 52.983-2.507 2.109-2.929 3.173-2.929 7.376 0 2.774.458 4.911 1.054 4.911.579 0 18.467-11.64 39.75-25.867s39.763-26.422 41.068-27.1c1.327-.69 3.715-.966 5.42-.625 1.676.336 20.506 12.314 41.844 26.619s39.486 26.275 40.33 26.598c1.255.482 1.534-.339 1.534-4.518 0-6.242.029-6.212-15.754-16.903L185 80.908V67.154c0-9.364-.383-14.137-1.2-14.954-1.673-1.673-15.227-1.596-16.63.095-.591.712-1.208 4.528-1.372 8.481l-.298 7.186-17.319-11.481C131.304 45.293 128.46 44.029 124 45.73m2.304 35.226c-6.704 4.088-8.839 11.243-5.446 18.251 2.567 5.303 6.787 7.96 12.642 7.96s10.075-2.657 12.642-7.96c6.041-12.48-8.046-25.441-19.838-18.251M97.893 91.497c-7.533 4.094-8.543 15.254-1.888 20.854 11.036 9.286 26.17-3.443 19.478-16.384-2.822-5.458-11.647-7.7-17.59-4.47m27.607 21.034c-1.65.816-4.328 2.546-5.951 3.843l-2.952 2.359 6.164 5.706c7.137 6.608 10.9 13.51 11.844 21.728.597 5.2.438 5.881-1.932 8.25-1.42 1.421-3.699 2.583-5.064 2.583h-2.482l2.969 8.75c1.632 4.813 2.841 9.875 2.686 11.25-.25 2.217-.809 2.534-4.936 2.801-5.883.38-6.22 1.466-5.268 16.938.65 10.547.882 11.516 3.103 12.972 1.866 1.222 2.928 1.333 4.765.496 2.145-.978 2.421-1.892 2.987-9.892.344-4.848.938-12.415 1.321-16.815l.697-8 .644 7.5c.354 4.125.702 11.213.774 15.75.108 6.807.481 8.6 2.131 10.25 2.557 2.557 4.471 2.529 7.106-.106 1.874-1.874 2.072-3.059 1.797-10.75-.17-4.754.062-10.809.516-13.455.726-4.226.568-5.052-1.296-6.789-1.439-1.341-2.116-3.174-2.101-5.689.023-3.857 2.953-11.459 4.874-12.647.704-.435 1.119-5.099 1.144-12.873.037-11.24.154-11.982 1.495-9.512l1.454 2.678 2.929-2.928c1.61-1.611 3.645-2.929 4.522-2.929 1.329 0 1.166-.844-.984-5.088-3.098-6.113-9.768-13.01-15.321-15.843-4.836-2.467-13.221-2.723-17.635-.538m-30 8.356c-9.875 4.551-17.911 15.346-19.138 25.707-.685 5.778.958 8.044 5.081 7.01 1.891-.475 2.628-1.497 3.147-4.362.372-2.058 1.398-5.092 2.28-6.742l1.603-3 .333 2.789c.184 1.533-1.981 9.734-4.81 18.224-2.83 8.49-4.86 15.898-4.512 16.462S82.314 178 84.998 178h4.879l.517 4.25c.284 2.338.782 9.178 1.106 15.201.617 11.474 1.368 13.559 4.872 13.534 4.617-.034 4.974-1.07 6.077-17.667.578-8.7 1.331-15.368 1.672-14.818.342.55.942 7.524 1.333 15.497.391 7.974 1.18 15.061 1.751 15.75.572.689 2.078 1.253 3.346 1.253 4.429 0 5.177-2.052 5.906-16.208.377-7.31.909-14.079 1.182-15.042.385-1.359 1.583-1.75 5.369-1.75 2.681 0 5.114-.388 5.407-.862s-1.931-8.222-4.941-17.216c-3.011-8.995-5.474-17.157-5.474-18.138 0-4.626 3.083.137 5.642 8.716.662 2.219 1.588 3.081 3.559 3.31 3.839.447 5.031-2.313 3.801-8.8-1.386-7.306-3.766-11.83-8.973-17.053-8.463-8.489-17.959-11.019-26.529-7.07m63 16.227c-3.16 1.793-4.5 4.016-4.5 7.466 0 4.3 2.717 7.356 7.177 8.069 3.063.491 4.105.159 6.25-1.985 3.074-3.074 3.452-8.383.823-11.55-2.117-2.55-7.012-3.554-9.75-2m-3.043 19.749c-6.183 3.771-11.689 13.485-10.055 17.742.898 2.341 3.588 1.557 4.652-1.355 2.084-5.702 2.218-5.907 2.658-4.083.32 1.326-3.214 14.692-5.425 20.514-.276.727.83 1.303 2.883 1.5l3.33.319 1 9.421c.695 6.546 1.431 9.563 2.413 9.888 2.677.884 4.087-2.91 4.087-11 0-4.539.419-7.809 1-7.809.571 0 1 2.978 1 6.935 0 7.853 1.224 12.065 3.507 12.065 2.057 0 2.348-.989 3.238-11l.755-8.5 3.25-.313c1.787-.173 3.25-.437 3.25-.588s-1.345-4.734-2.989-10.186c-3.182-10.554-3.99-16.351-1.521-10.913.749 1.65 1.606 3.787 1.904 4.75.676 2.178 3.461 2.292 4.273.175.974-2.539-1.508-9.175-4.861-12.993-5.716-6.511-12.425-8.181-18.349-4.569"/></svg>