<svg xmlns="http://www.w3.org/2000/svg" width="256" height="256"><path fill-opacity=".035" d="M0 128.004v128.004l128.25-.254 128.25-.254.254-127.75L257.008 0H0v128.004m.485.496c0 70.4.119 99.053.265 63.672.146-35.38.146-92.98 0-128C.604 29.153.485 58.1.485 128.5" fill="#1976D2" fill-rule="evenodd"/><path fill-opacity=".086" d="M118 15.632c-4.125 3.013-8.474 6.318-9.665 7.343-1.19 1.025-3.067 2.347-4.172 2.938-1.104.59-2.638 1.705-3.409 2.476-.771.771-8.119 6.273-16.328 12.227C66.477 53.635 68.268 52.305 64 55.781c-1.925 1.568-11.375 8.517-21 15.441-9.625 6.925-18.85 13.757-20.5 15.183-1.65 1.426-3.277 2.593-3.614 2.594-.338 0-2.138 1.344-4 2.985-1.863 1.641-3.724 2.991-4.136 3-.412.009-.75 1.654-.75 3.656 0 3.936 2.052 6.274 5.555 6.328 1.814.028 22.646-14.283 27.853-19.134C44.491 84.825 45.673 84 46.036 84c.362 0 1.722-.922 3.022-2.05 1.3-1.127 10.706-8.124 20.903-15.547C92.392 50.072 96.206 47.276 97.5 46.212c.55-.453 7.712-5.688 15.916-11.635l14.917-10.812 3.083 1.792c1.696.986 3.309 2.094 3.584 2.463.275.37 9.725 7.335 21 15.48s20.725 15.097 21 15.45c.275.353 7.25 5.544 15.5 11.536s15.595 11.484 16.321 12.204c.727.721 1.655 1.31 2.062 1.31.407 0 1.626.825 2.709 1.834 5.207 4.851 26.039 19.162 27.853 19.134 3.503-.054 5.555-2.392 5.555-6.328 0-2.002-.338-3.647-.75-3.656-.412-.009-2.273-1.359-4.136-3-1.862-1.641-3.689-2.984-4.061-2.984-.372 0-1.626-.886-2.788-1.968-1.162-1.082-8.732-6.82-16.823-12.75-8.091-5.93-16.222-11.907-18.069-13.282-1.847-1.375-8.874-6.517-15.616-11.426-17.112-12.463-27.17-19.92-27.757-20.581-.275-.31-6.234-4.71-13.243-9.778-9.057-6.549-13.541-9.193-15.5-9.138-1.676.046-5.699 2.225-10.257 5.555M69 78.958c-2.475.349-5.625 1.289-7 2.089-3.715 2.159-11 10.058-11 11.926 0 .895-.473 2.1-1.051 2.678-1.623 1.623-1.585 11.295.067 16.756 1.651 5.459 7.5 12.207 12.927 14.915 2.34 1.167 5.9 1.678 11.696 1.678 7.582 0 8.788-.281 13.414-3.128 5.685-3.497 8.777-7.772 11.433-15.807 1.579-4.775 1.64-6.049.504-10.5C95.969 83.821 85.215 76.67 69 78.958m104-.223c-6.666.642-14.67 5.959-17.603 11.695-.864 1.689-2.201 5.432-2.971 8.32-1.207 4.524-1.202 6.013.036 10.766 1.905 7.312 6.616 13.664 12.514 16.875 4.029 2.192 6.066 2.609 12.756 2.609 5.449 0 9.022-.53 11.325-1.678 4.401-2.196 11.943-9.997 11.943-12.355 0-1.017.45-2.127 1-2.467.55-.34 1-4.165 1-8.5s-.45-8.16-1-8.5c-.55-.34-1-1.414-1-2.386 0-2.167-7.401-10.043-11.5-12.237-3.201-1.713-10.757-2.694-16.5-2.142M65.251 93.91c-3.709 3.546-4.968 9.389-3.184 14.792C64.002 114.566 67.649 117 74.5 117c8.783 0 12.42-3.843 12.467-13.173.03-6.139-.213-6.919-3.044-9.75C81.141 91.295 80.245 91 74.571 91c-5.564 0-6.619.329-9.32 2.91m102.868.28c-2.861 2.926-3.116 3.733-3.086 9.75.047 9.208 3.724 13.06 12.467 13.06 10.688 0 16.324-8.997 12.048-19.232-2.077-4.969-5.371-6.768-12.394-6.768-5.334 0-6.224.314-9.035 3.19M39 135.619c-4.985 2.736-8.884 6.832-12.262 12.881-2.175 3.895-2.242 4.921-2.533 39l-.299 35 2.797 5.415c3.44 6.661 6.63 9.125 12.096 9.342 3.388.136 4.201.532 4.201 2.051 0 1.036.784 3.211 1.743 4.833 1.528 2.587 2.23 2.914 5.71 2.655 3.261-.243 4.09-.741 4.657-2.796 1.099-3.98 1.017-70.535-.09-73.447-.539-1.418-2.166-3.118-3.615-3.778-2.406-1.096-2.886-.92-5.52 2.028L43 172.032V225h-6v-71.053l4.474-4.473L45.947 145h27.86c15.323 0 28.168.308 28.545.685.377.377 2.171 1.196 3.986 1.82 4.006 1.378 6.983.281 8.545-3.147 1.494-3.28-.836-6.805-6.217-9.405-3.75-1.812-6.246-1.948-34.604-1.879-30.554.075-30.563.075-35.062 2.545m111.542.086c-7.662 5.009-9.143 8.442-5.228 12.121 3.005 2.822 5.383 2.744 9.901-.326 3.613-2.455 4.028-2.5 23.165-2.5h19.486l3.388 4.25c1.863 2.338 3.961 6.275 4.663 8.75.701 2.475 1.907 5.978 2.679 7.784.772 1.806 1.404 4.142 1.404 5.191 0 1.049.45 2.185 1 2.525.55.34 1.003 1.604 1.006 2.809.004 1.205.679 3.48 1.5 5.055.822 1.576 1.494 3.912 1.494 5.191 0 1.28.45 2.605 1 2.945.55.34 1.003 1.379 1.006 2.309.004.93.679 2.98 1.5 4.555.822 1.576 1.494 3.912 1.494 5.191 0 1.28.411 2.581.913 2.891.502.311 1.216 2.36 1.587 4.554.371 2.194 1.085 4.243 1.587 4.554.502.31.913 1.887.913 3.505 0 2.575-.359 2.941-2.883 2.941-2.171 0-3.011-.556-3.399-2.25-.643-2.806-2.703-8.682-3.852-10.986-.476-.955-.866-2.403-.866-3.217 0-.813-.638-2.957-1.417-4.763-.78-1.806-2.188-5.984-3.129-9.284-.941-3.3-2.103-6.428-2.583-6.95-.479-.522-.871-2.02-.871-3.327 0-2.354-4.901-8.223-6.867-8.223-.562 0-2.245 1.053-3.741 2.34-2.607 2.241-2.676 2.545-1.661 7.25.954 4.423 2.056 7.961 4.334 13.91.421 1.1 1.546 4.475 2.501 7.5 3.17 10.041 4.637 14.479 5.456 16.5.446 1.1 1.035 2.9 1.309 4 .491 1.974 2.236 7.105 3.741 11 .425 1.1 1.022 3.16 1.326 4.578.681 3.172 4.94 7.922 7.102 7.922 2.624 0 6.72-5.117 5.973-7.462-1.421-4.464-1.029-5.844 1.888-6.642 1.574-.43 4.386-2.496 6.249-4.589 3.012-3.384 3.389-4.443 3.389-9.523.001-3.144-.637-7.194-1.416-9-.78-1.806-2.188-5.984-3.129-9.284-.941-3.3-2.103-6.428-2.583-6.95-.479-.522-.871-2.12-.871-3.55 0-1.43-.358-3.028-.795-3.55-.437-.522-1.606-3.65-2.598-6.95-.992-3.3-2.434-7.478-3.205-9.284-.771-1.806-1.402-4.142-1.402-5.191 0-1.049-.45-2.185-1-2.525-.55-.34-1-1.68-1-2.978 0-1.298-.647-3.634-1.439-5.191-.791-1.557-2.123-4.406-2.959-6.331-2.011-4.63-5.175-8.103-10.332-11.343L200.04 133l-22.77.059c-22.762.059-22.771.06-26.728 2.646m-28.278 12.214c-5.086 1.293-9.738 5.485-12.617 11.369-3.041 6.216-3.223 9.534-.841 15.346 3.92 9.567 9.606 13.366 20.005 13.366 5.817 0 7.525-.417 10.799-2.638 4.62-3.133 6.271-5.278 8.725-11.333 3.16-7.8-.276-17.84-7.962-23.262-4.269-3.012-12.421-4.294-18.109-2.848m-.888 15.723c-2.854 6.831.332 12.358 7.124 12.358s9.978-5.527 7.124-12.358c-1.494-3.575-1.625-3.642-7.124-3.642s-5.63.067-7.124 3.642M111 191.643c-5.306.684-9.567 3.009-12.877 7.024C93.187 204.656 92 210.056 92 226.534c0 17.644.991 20.466 7.19 20.466 6.046 0 6.81-2.564 6.81-22.869v-16.968l3.368-2.081c3.039-1.879 4.908-2.082 19.132-2.082s16.093.203 19.132 2.082l3.368 2.081v16.968c0 20.305.764 22.869 6.81 22.869 6.219 0 7.193-2.804 7.175-20.654-.019-19.974-2.272-26.346-11.34-32.07-4.01-2.532-4.689-2.621-21.643-2.849-9.626-.129-19.077-.032-21.002.216" fill="#1976D2" fill-rule="evenodd"/><path fill-opacity=".186" d="M123.329 13.308c-7.068 4.886-35.961 26.231-37.768 27.9C84.495 42.194 83.29 43 82.883 43c-.407 0-1.335.594-2.062 1.32-.726.726-9.421 7.238-19.321 14.472-50.211 36.689-49.977 36.504-50.308 39.907-.23 2.362.21 3.446 1.729 4.259 2.854 1.527 5.931.506 10.568-3.506C25.683 97.553 27.788 96 28.168 96c.379 0 1.284-.592 2.011-1.315 1.222-1.216 9.484-7.299 59.083-43.494 10.031-7.32 19.138-14.07 20.238-15 1.101-.93 3.339-2.555 4.975-3.611 1.635-1.056 3.885-2.773 4.999-3.816 1.114-1.043 3.522-2.824 5.35-3.957 4.197-2.603 4.287-2.561 20.176 9.339 6.875 5.148 19.25 14.283 27.5 20.298 8.25 6.015 15.595 11.526 16.321 12.246.727.721 1.655 1.31 2.062 1.31.407 0 1.612.803 2.678 1.784 1.067.982 8.689 6.697 16.939 12.7 8.25 6.004 15.595 11.501 16.321 12.216.727.715 1.632 1.3 2.011 1.3.38 0 2.485 1.553 4.679 3.452 4.637 4.012 7.714 5.033 10.568 3.506 1.518-.813 1.959-1.897 1.729-4.249-.272-2.788-2.007-4.416-14.808-13.896-22.644-16.769-44.821-33.045-49.162-36.079-2.176-1.522-4.915-3.659-6.086-4.75-1.171-1.091-2.462-1.984-2.869-1.984-.407 0-1.335-.589-2.062-1.31-.726-.72-8.071-6.212-16.321-12.204-8.25-5.992-15.225-11.186-15.5-11.541-1.244-1.607-9.139-5.939-10.73-5.887-.974.031-3.197 1.044-4.941 2.25M69 79.978c-10.233 2.184-16.202 8.303-18.899 19.376-2.261 9.285 3.256 21.334 11.899 25.984 12.196 6.561 25.722 3.192 33.474-8.338 2.781-4.136 3.025-5.188 3.014-13-.012-8.001-.215-8.805-3.452-13.701C89.575 82.041 78.991 77.845 69 79.978m103.5-.074c-6.319 1.065-11.804 4.749-15.53 10.429-3.186 4.856-3.388 5.678-3.376 13.667.012 7.476.334 9.002 2.672 12.67a25.747 25.747 0 0 0 31.926 9.856c4.917-2.111 8.424-5.594 11.179-11.103 3.679-7.357 4.093-11.246 1.97-18.509-3.686-12.614-15.075-19.331-28.841-17.01M65.8 92.079c-5.476 4.087-7.196 11.336-4.321 18.216 2.257 5.403 6.215 7.705 13.245 7.705 5.043 0 6.369-.406 8.986-2.75 6.648-5.955 6.545-17.666-.202-22.811-4.24-3.235-13.602-3.425-17.708-.36m102.292.839c-6.186 5.522-6.181 15.839.009 22.029 2.727 2.728 3.694 3.053 9.072 3.053 4.44 0 6.764-.531 8.862-2.025 7.792-5.548 7.973-17.891.35-23.887-2.042-1.606-4.082-2.088-8.84-2.088-5.42 0-6.589.361-9.453 2.918M46.5 133.941c-8.325 2.238-13.739 6.371-18.162 13.865l-2.771 4.694-.362 34.633c-.344 32.921-.263 34.849 1.636 39 2.991 6.537 6.914 9.816 12.166 10.167 4.08.274 4.453.538 5.282 3.747.49 1.899 1.356 4.016 1.924 4.703 1.625 1.968 6.566 1.532 7.752-.684.658-1.229 1.035-14.884 1.035-37.461 0-35.26-.016-35.542-2.189-37.566-2.688-2.505-3.005-2.512-5.95-.129-2.353 1.904-2.363 2.001-2.861 29.25l-.5 27.34h-7l-.279-34.5c-.154-18.975-.053-35.4.224-36.5.624-2.481 4.176-6.493 7.77-8.775 2.406-1.529 5.875-1.721 30.5-1.693 22.846.026 28.13.293 29.726 1.5 2.347 1.775 6.712 1.915 8.359.268 1.886-1.886 1.409-5.267-1.05-7.435-5.187-4.572-6.906-4.817-35.25-5.029-14.85-.111-28.35.161-30 .605m112-.316c-4.532 1.094-10.934 5.04-12.588 7.76-1.609 2.646-1.629 3.117-.225 5.261 1.986 3.029 4.799 2.983 8.902-.146 3.242-2.473 3.492-2.5 23.178-2.5h19.9l3.533 3.534c2.887 2.886 4.314 5.955 7.788 16.75 5.548 17.232 7.056 21.79 8.012 24.216 2.938 7.448 9.134 28.566 8.836 30.115-.272 1.409-1.228 1.885-3.79 1.885h-3.426l-2.931-9c-1.612-4.95-3.289-9.9-3.725-11-.437-1.1-1.574-4.475-2.528-7.5-5.859-18.586-8.247-22.369-12.473-19.758-1.121.692-2.274 2.191-2.564 3.331-.472 1.858 8.662 31.983 12.192 40.211.775 1.806 1.409 4.079 1.409 5.05 0 .971.358 2.193.795 2.716.437.522 1.621 3.65 2.631 6.95 3.441 11.237 4.26 12.5 8.102 12.5 3.895 0 4.712-1.63 4.244-8.465-.242-3.525.008-4.025 2.24-4.5 3.14-.669 6.085-2.803 8.288-6.008 1.858-2.702 2.345-11.826.789-14.791-1.021-1.944-1.665-3.877-9.072-27.236-2.877-9.075-5.858-17.978-6.624-19.784-.766-1.806-1.393-3.914-1.393-4.684 0-3.017-5.625-14.233-8.962-17.87-5.921-6.453-8.142-7-29.538-7.275-10.45-.135-19.9-.028-21 .238M123 148.673c-2.582.525-8.558 4.577-10.743 7.286-.683.848-1.943 3.87-2.799 6.717-1.411 4.69-1.41 5.682.012 10.573 2.553 8.78 9.75 14.18 18.903 14.18 9.427 0 16.09-4.946 19.08-14.164 1.566-4.829 1.575-5.643.115-10.5-1.811-6.027-2.704-7.318-7.621-11.024-3.637-2.741-11.523-4.169-16.947-3.068m2.691 10.149c-5.028.577-8.236 8.408-5.528 13.494 1.815 3.408 4.003 4.62 8.337 4.62 8.156 0 11.985-7.348 7.588-14.559-1.964-3.22-4.814-4.195-10.397-3.555m-17.128 33.903c-3.612.92-9.487 5.481-11.766 9.136-2.102 3.371-2.295 4.979-2.611 21.808-.228 12.068.031 18.869.771 20.25 1.471 2.748 6.566 2.841 8.008.147.589-1.101 1.035-8.792 1.035-17.852 0-14.934.142-16.128 2.29-19.316l2.29-3.398h39.84l2.29 3.398c2.148 3.188 2.29 4.382 2.29 19.316 0 9.06.446 16.751 1.035 17.852 1.451 2.711 6.538 2.6 8.023-.175.76-1.419 1.013-8.041.774-20.25-.346-17.685-.423-18.245-3.03-22.27-1.785-2.756-4.422-4.999-7.934-6.75-5.125-2.553-5.726-2.618-23.314-2.505-9.93.064-18.925.338-19.991.609" fill="#1976D2" fill-rule="evenodd"/><path fill-opacity=".323" d="M117.612 18.731c-5.875 4.273-12.129 8.797-13.897 10.053-1.768 1.256-4.047 2.977-5.064 3.824-1.016.848-8.441 6.32-16.5 12.161-8.058 5.841-15.523 11.432-16.59 12.426C64.495 58.188 63.29 59 62.883 59c-.407 0-1.335.589-2.062 1.31-.726.72-8.071 6.218-16.321 12.219-8.25 6-15.598 11.489-16.328 12.197-.73.708-2.305 1.807-3.5 2.442-2.407 1.28-11.752 8.761-12.907 10.332-.404.55-.741 1.305-.75 1.679-.026 1.162 3.062 3.821 4.439 3.821 1.287 0 25.848-17.341 29.874-21.091C46.455 80.859 47.71 80 48.117 80c.407 0 1.335-.59 2.062-1.312.726-.722 8.036-6.177 16.244-12.122 8.208-5.946 15.83-11.655 16.939-12.688C84.47 52.845 85.71 52 86.117 52c.407 0 1.335-.59 2.062-1.311C92.074 46.824 127.427 22 129.036 22c1.042 0 3.373 1.27 5.179 2.823 1.807 1.552 11.61 8.842 21.785 16.199 10.175 7.357 19.372 14.186 20.439 15.177 1.066.991 2.271 1.801 2.678 1.801.407 0 1.335.589 2.062 1.31.726.72 6.496 5.081 12.821 9.69 6.325 4.609 12.095 8.97 12.821 9.69.727.721 1.655 1.31 2.062 1.31.407 0 1.662.859 2.789 1.909 4.026 3.75 28.587 21.091 29.874 21.091 1.377 0 4.465-2.659 4.439-3.821-.009-.374-.346-1.129-.75-1.679-1.155-1.571-10.5-9.052-12.907-10.332-1.195-.635-2.77-1.734-3.5-2.442-.73-.708-8.078-6.187-16.328-12.175-8.25-5.989-15.225-11.175-15.5-11.525-.275-.35-8.825-6.645-19-13.987-10.175-7.343-18.725-13.636-19-13.985-.596-.755-24.368-18.033-28.103-20.424-2.585-1.656-2.672-1.616-13.285 6.101M64.657 82.508c-6.179 3.065-7.367 4.081-10.489 8.977-2.231 3.499-2.56 5.107-2.56 12.515 0 7.524.31 8.987 2.702 12.74 3.284 5.152 8.457 8.626 15.385 10.331 4.582 1.128 5.931 1.056 11.429-.609 10.993-3.328 16.404-10.951 16.337-23.014-.032-5.823-.512-7.859-2.754-11.685-6.131-10.462-19.387-14.545-30.05-9.255m104.843-.807c-10.088 4.031-15 11.31-15 22.229 0 11.481 5.711 19.303 16.471 22.561 5.42 1.641 6.748 1.707 11.334.564 13.909-3.468 20.232-13.241 18.187-28.11-1.857-13.508-17.942-22.458-30.992-17.244M71 88.7c-8.816 3.189-12 7.392-12 15.84 0 5.035.311 5.749 4.329 9.942 4.275 4.463 4.409 4.518 10.923 4.518 5.608 0 7.048-.381 9.621-2.547 9.906-8.335 7.296-23.272-4.772-27.314-3.607-1.208-5.665-1.32-8.101-.439m102 .436c-11.816 3.468-14.659 19.083-4.96 27.244 2.616 2.201 4.091 2.62 9.225 2.62 9.994 0 15.735-5.481 15.735-15.024 0-10.713-9.655-17.877-20-14.84M42.328 136.552C36.513 139.393 29 146.363 29 148.918c0 .925-.562 2.244-1.25 2.931-.953.952-1.25 9.622-1.25 36.45 0 31.634.18 35.576 1.772 38.899 2.92 6.093 7.078 8.299 16.478 8.743.715.034 1.25 1.37 1.25 3.125 0 6.195 3.107 8.683 6.358 5.091 1.502-1.66 1.642-5.392 1.405-37.641-.241-32.838-.408-35.89-2.013-36.902-1.275-.804-2.225-.805-3.5-.001-1.574.991-1.8 3.789-2.25 27.834-.498 26.611-.511 26.741-2.861 28.643-3.048 2.466-3.73 2.41-6.684-.545L34 223.091v-32.225c0-33.675.342-36.849 4.487-41.68 1.092-1.273 3.567-3.299 5.5-4.501 3.386-2.106 4.487-2.185 30.558-2.185 24.419 0 27.312.176 29.807 1.811 1.52.996 3.975 1.671 5.456 1.5 2.242-.259 2.692-.803 2.692-3.252 0-2.516-.717-3.31-4.97-5.5-4.938-2.543-5.143-2.56-32.5-2.796l-27.53-.238-5.172 2.527m112.393-.626c-5.568 2.599-8.899 5.827-8.534 8.27.41 2.752 3.354 4.629 5.173 3.299 6.663-4.876 6.512-4.836 20.134-5.298 18.164-.616 25.732.281 29.56 3.501 2.929 2.466 6.946 9.379 6.946 11.956 0 .703.638 2.756 1.417 4.562.78 1.806 2.188 5.984 3.129 9.284.941 3.3 2.103 6.428 2.583 6.95.479.523.871 2.12.871 3.55 0 1.43.392 3.028.871 3.55.48.522 1.642 3.65 2.583 6.95.941 3.3 2.349 7.478 3.129 9.284.779 1.806 1.417 4.079 1.417 5.05 0 .971.392 2.194.872 2.716.48.522 1.159 2.858 1.51 5.19.52 3.456.267 4.611-1.372 6.25-1.105 1.105-2.48 2.01-3.055 2.01-1.836 0-5.851-4.729-6.509-7.664-.625-2.788-2.907-9.908-4.436-13.836-.428-1.1-1.597-4.7-2.599-8-1.002-3.3-2.179-6.428-2.616-6.95-.437-.522-.828-2.098-.868-3.5-.096-3.362-3.144-8.464-5.306-8.883-3.057-.592-4.841 1.846-4.129 5.642.355 1.89 1.019 4.169 1.477 5.064.457.895 1.644 4.327 2.637 7.627.993 3.3 2.162 6.428 2.599 6.95.437.522.795 1.745.795 2.716 0 .971.621 3.244 1.38 5.05.759 1.806 1.912 5.084 2.561 7.284.65 2.2 1.786 5.575 2.526 7.5.74 1.925 2.12 6.2 3.068 9.5.947 3.3 2.114 6.428 2.594 6.95.479.523.871 1.76.871 2.75 0 1.404.802 1.8 3.642 1.8h3.643l-.626-5.985c-.616-5.896-.584-5.995 2.108-6.658 8.24-2.03 12.497-10.497 9.331-18.56-.496-1.263-2.118-6.347-3.605-11.297s-3.331-10.478-4.098-12.284c-.767-1.806-1.395-4.142-1.395-5.191 0-1.049-.45-2.185-1-2.525-.55-.34-1-1.476-1-2.525s-.631-3.385-1.403-5.191-2.864-7.946-4.649-13.644c-4.196-13.392-7.783-18.755-14.948-22.348-5.443-2.73-5.695-2.758-24.5-2.694-15.966.054-19.603.346-22.779 1.828m-34.427 15.119c-2.313 1.085-5.457 3.613-6.987 5.619-2.479 3.251-2.78 4.468-2.772 11.241.011 9.295 2.186 12.872 10.11 16.62 6.556 3.102 9.154 3.102 15.71 0 7.924-3.748 10.099-7.325 10.11-16.62.008-6.776-.292-7.989-2.777-11.247-5.397-7.076-15.238-9.437-23.394-5.613m3.126 7.1c-5.782 2.805-7.136 11.807-2.519 16.749 2.449 2.622 3.633 3.106 7.599 3.106s5.15-.484 7.599-3.106c8.089-8.659-1.969-21.946-12.679-16.749m-17.36 37.146c-2.442 1.215-5.817 3.938-7.5 6.05l-3.06 3.842v19.443c0 16.195.251 19.602 1.5 20.394 2.052 1.299 2.613 1.224 4.429-.591 1.301-1.302 1.571-4.4 1.571-18.014 0-24.749-.419-24.348 25.5-24.348 26.013 0 25.5-.489 25.5 24.296 0 13.661.27 16.764 1.571 18.066 1.817 1.816 2.377 1.89 4.429.59 1.249-.792 1.5-4.2 1.5-20.393v-19.443l-3.06-3.841c-1.683-2.113-5.058-4.836-7.5-6.051-4.085-2.032-5.88-2.209-22.44-2.209-16.56 0-18.355.177-22.44 2.209" fill="#1976D2" fill-rule="evenodd"/></svg>