<svg xmlns="http://www.w3.org/2000/svg" width="256" height="256"><path fill="#1976D2" fill-opacity=".016" fill-rule="evenodd" d="M0 128.004v128.004l128.25-.254 128.25-.254.254-127.75L257.008 0H0zm.485.496c0 70.4.119 99.053.265 63.672s.146-92.98 0-128S.485 58.1.485 128.5"/><path fill="#1976D2" fill-opacity=".211" fill-rule="evenodd" d="M124.167 45.024c-3.615 1.508-78.442 51.936-80.417 54.195-1.968 2.252-2.539 12.781-.693 12.781.581 0 18.765-11.906 40.409-26.458s40.518-26.751 41.943-27.109c1.425-.357 3.757-.357 5.182 0 1.425.358 20.299 12.557 41.943 27.109S212.362 112 212.943 112c1.147 0 1.469-8.762.422-11.491-.349-.91-6.649-5.679-14-10.599L186 80.965V67.482c0-16.62-.511-17.491-10.25-17.467-3.437.009-6.925.441-7.75.962-1.032.65-1.656 3.296-2 8.482l-.5 7.537L149 56.019c-16.596-11.042-20.537-12.787-24.833-10.995m3.333 25.819c-5.852 2.77-8.646 6.271-9.245 11.585l-.513 4.553-3.254-2.857c-7.965-6.994-20.67-3.746-24.447 6.249-2.44 6.458 3.024 15.89 10.015 17.288l3.323.665-4.487 1.308c-6.204 1.809-15.991 10.825-19.47 17.936-3.373 6.894-4.546 18.252-2.096 20.286 1.947 1.616 5.701 1.142 6.779-.856.445-.825 1.58-4.2 2.522-7.5s1.875-5.313 2.073-4.472c.199.84-1.903 9.151-4.669 18.468-6.492 21.863-6.498 21.504.317 21.504h5.348l.652 10.656c.359 5.86.652 13.285.652 16.5 0 6.275 2.119 9.844 5.845 9.844 4.082 0 5.515-3.487 6.285-15.3 1.023-15.691 1.135-15.786 1.8-1.543.489 10.48.917 13.016 2.485 14.75 2.213 2.444 4.433 2.654 7.144.676 1.711-1.248 2.06-3.413 2.941-18.25l1-16.833 5-.31c2.75-.17 5.363-.669 5.808-1.108s-1.693-9.105-4.75-19.258c-5.688-18.892-6.251-21.37-4.626-20.366.513.317 1.481 3.156 2.153 6.309 1.748 8.213 6.119 10.903 9.451 5.818 1.35-2.061 1.416-3.337.444-8.696-.626-3.454-2.035-8.037-3.131-10.184-4.059-7.958-16.192-18.64-21.295-18.749-1.268-.027-.583-.568 1.791-1.415 2.114-.754 4.914-2.375 6.221-3.603 2.768-2.601 4.858-8.209 4.116-11.046-.405-1.55.294-1.243 3.249 1.427 6.677 6.032 16.524 5.659 22.672-.86 4.442-4.709 5.124-9.431 2.209-15.283-3.865-7.761-12.683-10.944-20.312-7.333m-3.655 32.136c-2.473 1.638-5.332 3.901-6.352 5.029-1.816 2.007-1.804 2.085.576 3.719 8.677 5.955 15.02 17.2 15.712 27.855.441 6.786.345 7.174-2.295 9.25-1.516 1.193-3.595 2.168-4.621 2.168s-1.865.282-1.865.626 1.392 5.31 3.094 11.034 2.841 11.068 2.531 11.874c-.393 1.025-2.108 1.466-5.698 1.466h-5.137l.355 15.847c.258 11.53.729 16.297 1.727 17.5 1.484 1.787 5.759 2.172 8.046.725 1.726-1.093 2.866-8.547 3.145-20.572.249-10.724.612-9.07 1.488 6.779.709 12.851 1.522 14.721 6.398 14.721 4.69 0 5.537-2.149 5.681-14.407.072-6.101.474-13.255.894-15.898.676-4.256.518-4.977-1.38-6.307-3.314-2.321-2.941-9.67.856-16.888 2.792-5.308 3.005-6.476 3.079-16.852.043-6.131.304-10.473.579-9.648s.697 2.117.936 2.871c.319 1.002 1.127.68 2.998-1.19 1.409-1.409 3.535-2.701 4.725-2.872 3.103-.444 3.165-2.913.231-9.117-3.187-6.736-9.597-14.133-15.48-17.864-6.387-4.05-13.965-3.994-20.223.151m31.791 30.657c-4.682 4.683-3.148 10.319 3.864 14.197 1.973 1.091 1.971 1.107-.109 1.137-1.16.016-4.164 1.838-6.675 4.048-5.099 4.489-8.047 10.772-7.541 16.073.285 2.985.667 3.404 3.075 3.37 1.512-.022 2.742-.022 2.733 0-.45 1.034-3.954 15.428-3.966 16.289-.01.765 1.341 1.25 3.483 1.25h3.5v9.429c0 10.48 1.337 13.531 5.058 11.54 2.142-1.146 2.766-3.157 3.25-10.469.259-3.904.371-3.419.512 2.215.147 5.898.52 7.396 2.042 8.211 3.696 1.978 5.036-.621 5.762-11.176l.671-9.75h2.794c1.536 0 3.058-.428 3.381-.951.323-.524-.55-4.999-1.941-9.946-2.55-9.07-3.166-12.502-1.498-8.353 1.223 3.042 4.751 2.968 5.525-.116 1.55-6.177-4.523-16.924-11.519-20.386-3.626-1.794-3.909-2.154-2.135-2.717 2.835-.9 6.098-5.31 6.098-8.243 0-1.366-1.288-3.73-2.923-5.365-3.954-3.954-9.652-4.075-13.441-.287m-4.012 32.903c-.343.893-.585 2.375-.538 3.293.047.917.482.341.967-1.282.943-3.156.609-4.718-.429-2.011m20.455.044c.048 1.165.285 1.402.604.605.289-.722.253-1.585-.079-1.917s-.568.258-.525 1.312"/><path fill="#1976D2" fill-opacity=".535" fill-rule="evenodd" d="M85.741 70.644C64.709 84.748 46.263 97.432 44.75 98.831c-2.258 2.088-2.75 3.394-2.75 7.297 0 2.615.374 4.985.83 5.267.457.282 17.894-10.993 38.75-25.057s39.832-26.439 42.17-27.501c4.199-1.908 4.301-1.908 8.5 0 2.338 1.062 21.314 13.438 42.17 27.501s38.293 25.339 38.75 25.057c.456-.282.83-2.69.83-5.35 0-5.836-1.104-6.949-17.782-17.932L185 80.727V66.47c0-12.077-.242-14.349-1.582-14.863-2.855-1.096-14.972-.653-16.218.593-.71.71-1.2 4.125-1.2 8.365v7.164l-17.03-11.364C134.392 46.637 131.366 45 127.961 45c-3.54 0-8.191 2.825-42.22 25.644m40.276 1.207C112.586 79.054 117.789 98 133.198 98c5.806 0 9.57-1.747 13.29-6.168 2.395-2.847 2.673-3.883 2.286-8.543-.471-5.686-2.837-9.211-7.974-11.884-3.768-1.96-10.685-1.752-14.783.446M96.299 82.96c-6.597 4.022-8.409 13.379-3.68 18.999 5.251 6.24 12.229 7.69 19.4 4.031 4.537-2.314 6.981-6.337 6.981-11.49 0-8.053-5.845-13.493-14.5-13.493-3.199 0-6.153.704-8.201 1.953m30.954 18.53c-1.786.776-5.051 2.861-7.256 4.633l-4.009 3.222 5.479 4.883c7.654 6.822 12.514 16.726 12.815 26.111.195 6.106-.031 7.029-2.143 8.744-1.298 1.054-3.436 1.917-4.75 1.917s-2.384.113-2.378.25 1.351 4.525 2.989 9.75 2.983 10.497 2.989 11.715c.014 2.745-2.71 4.285-7.577 4.285h-3.72l.687 15.207C121.113 208.47 121.937 211 126.5 211c4.496 0 5.269-2.452 6.146-19.5.763-14.828.87-15.451 1.458-8.5.349 4.125.693 11.112.765 15.527.089 5.47.627 8.736 1.688 10.25 1.768 2.525 5.601 2.922 7.721.802 1.752-1.752 3.233-17.259 1.812-18.971-.644-.776-.439-3.306.604-7.445l1.579-6.269-2.76-2.881c-2.457-2.564-2.687-3.367-2.095-7.317.366-2.441 1.642-6.183 2.836-8.317 1.819-3.252 2.261-6.06 2.736-17.379.526-12.553.66-13.268 1.907-10.188l1.342 3.312 2.13-1.988c1.172-1.093 3.382-2.298 4.912-2.678 3.189-.792 3.112-1.686-.872-10.079-6.841-14.415-20.761-22.408-31.156-17.889M96 111.219c-10.36 5.105-18.403 16.773-19.625 28.471-.579 5.532-.441 6.15 1.701 7.651 3.392 2.376 5.902.308 7.578-6.243.745-2.91 1.789-6.034 2.32-6.944 2.512-4.304.649 5.408-4.046 21.087-2.79 9.317-4.829 17.574-4.532 18.349.367.955 2.166 1.41 5.573 1.41 2.767 0 5.045.338 5.062.75.698 16.69 2.146 32.758 3.051 33.849 1.465 1.765 6.322 1.824 7.756.096.596-.718 1.379-6.906 1.74-13.75 1.062-20.153 1.969-21.312 2.757-3.523.401 9.05 1.182 16.496 1.808 17.25 1.452 1.75 6.303 1.701 7.779-.078.997-1.201 2.932-21.133 3.043-31.344.035-3.231.064-3.25 5.066-3.25 3.639 0 5.198-.432 5.631-1.562.33-.86-1.713-9.297-4.54-18.75-5.362-17.932-6.7-25.864-3.067-18.188 1.041 2.2 1.904 5.227 1.919 6.727.036 3.745 3.996 6.395 7.086 4.741 2.008-1.075 2.153-1.745 1.712-7.909-.846-11.822-9.431-24.176-20.272-29.172-5.329-2.455-10.049-2.354-15.5.332m59.806 22.821c-2.535 2.535-2.935 3.563-2.411 6.184 1.282 6.41 7.544 9.41 13.362 6.401 3.209-1.659 4.243-3.396 4.243-7.125 0-3.687-1.027-5.463-4.072-7.037-4.411-2.281-7.735-1.81-11.122 1.577m-1.378 17.877c-6.906 5.079-11.677 16.972-8.024 20.004 2.031 1.685 4.589-.142 4.611-3.293.009-1.171.452-2.803.985-3.628 1.731-2.679 1.181.788-1.968 12.406-1.626 5.999-2.722 11.286-2.435 11.75s1.844.844 3.462.844c2.905 0 2.942.07 3.015 5.75.041 3.162.378 7.775.75 10.25.594 3.953.98 4.5 3.176 4.5 2.413 0 2.538-.329 3.61-9.5l1.11-9.5.14 8.55c.143 8.708 1.009 10.95 4.233 10.95 2.127 0 2.907-1.996 2.907-7.442 0-2.353.286-6.367.636-8.918.588-4.292.851-4.64 3.5-4.64 3.733 0 3.719-1.512-.136-15-3.411-11.933-3.383-11.783-1.893-10.293.609.609 1.415 2.612 1.791 4.45.495 2.42 1.225 3.343 2.643 3.343 2.683 0 3.227-7.082.9-11.694-5.574-11.042-15.088-14.717-23.013-8.889"/><path fill="#1976D2" fill-opacity=".424" fill-rule="evenodd" d="M119.325 48.75c-16.803 10.435-75.401 50.524-76.296 52.195-1.324 2.474-1.333 8.749-.013 9.565.558.345 19.221-11.554 41.473-26.441C115.397 63.389 125.668 57 128 57s12.603 6.389 43.511 27.069c22.252 14.887 40.915 26.786 41.473 26.441 1.325-.819 1.309-7.095-.024-9.585-.572-1.069-7.097-5.997-14.5-10.952L185 80.965V67.182c0-9.386-.383-14.165-1.2-14.982-1.242-1.242-12.394-1.677-15.218-.593-1.26.483-1.582 2.235-1.582 8.607 0 6.892-.22 7.916-1.585 7.392-.872-.335-7.735-4.822-15.25-9.971-21.332-14.616-21.524-14.671-30.84-8.885m8.125 22.657c-5.12 2.23-8.45 7.063-8.45 12.265 0 5.943 2.469 9.893 7.797 12.472 11.058 5.353 23.917-3.196 21.797-14.494-.874-4.657-3.292-7.609-7.977-9.736-4.829-2.193-8.933-2.351-13.167-.507M98.02 82.752c-10.639 5.345-10.282 18.591.632 23.418 5.906 2.613 11.374 1.75 16.045-2.531 6.75-6.186 5.181-16.583-3.106-20.595-5.17-2.503-9.007-2.585-13.571-.292m29.48 19.115c-2.2 1.003-5.481 3.074-7.29 4.601l-3.291 2.778 6.071 6.322c7.484 7.794 11.132 15.343 11.76 24.338.421 6.032.249 6.79-2.015 8.896-1.362 1.267-3.434 2.375-4.605 2.463s-2.13.577-2.13 1.087c0 .509 1.368 5.36 3.04 10.778 3.722 12.059 3.255 13.87-3.575 13.87H121l-.112 3.75c-.297 9.936.409 25.931 1.211 27.432 1.213 2.27 4.396 3.159 6.767 1.89 2.289-1.225 2.789-4.497 3.728-24.366.359-7.586.871-13.575 1.138-13.307.268.267.854 8.481 1.302 18.252.7 15.235 1.068 17.951 2.582 19.058 2.475 1.81 4.06 1.615 6.469-.794 1.873-1.873 2.064-3.121 1.875-12.25-.116-5.591.136-12.552.56-15.469.693-4.764.553-5.456-1.374-6.807-3.575-2.503-2.547-11.999 2.007-18.543 1.559-2.241 1.86-4.734 1.928-16l.081-13.346 1.784 3.824c1.223 2.621 1.963 3.357 2.353 2.338.314-.817 2.175-2.065 4.136-2.775 4.221-1.526 4.351-2.657 1.107-9.624-3.257-6.996-10.896-15.02-17.042-17.9-5.997-2.811-8.71-2.907-14-.496m-27.736 8.098c-6.872 2.147-15.76 10.186-19.613 17.74-2.817 5.521-4.548 15.684-3.126 18.343 1.593 2.975 6.202 2.299 7.137-1.048 2.509-8.979 3.314-11.15 4.503-12.137 2.434-2.02 1.48 2.988-4.119 21.62-3.904 12.992-5.112 18.334-4.353 19.25.579.697 3.18 1.267 5.782 1.267h4.73l.706 16.071c.388 8.839.946 16.697 1.24 17.462 1.124 2.928 7.556 2.977 8.673.066.28-.729.834-8.587 1.231-17.462S103.618 175 104.034 175c.415 0 1.062 7.088 1.436 15.75s.902 16.536 1.172 17.498c.603 2.144 5.09 3.409 7.263 2.047 1.234-.774 1.771-3.689 2.374-12.897.428-6.544 1.023-14.261 1.322-17.148l.543-5.25h4.959c3.114 0 5.143-.478 5.452-1.283.271-.706-1.768-8.78-4.531-17.942-4.742-15.722-6.705-27.252-3.793-22.275.644 1.1 1.911 4.7 2.816 8 1.401 5.11 2.014 6.045 4.135 6.301 4.263.514 5.361-2 4.097-9.38-1.443-8.427-4.279-14.078-9.956-19.836-7.24-7.343-15.314-10.572-21.559-8.62m58.636 22.487c-7.929 3.39-4.891 14.548 3.96 14.548 7.3 0 11.054-7.253 6.39-12.345-2.866-3.129-6.416-3.885-10.35-2.203m-.9 17.712c-6.517 3.596-11.5 11.307-11.5 17.796 0 3.288.35 4.04 1.881 4.04 1.395 0 2.174-1.163 3.015-4.5.623-2.475 1.576-4.5 2.118-4.5 1.371 0 1.358.072-2.364 13.5l-3.327 12 3.21.303c2.994.282 3.252.61 3.838 4.889.346 2.523.629 7.176.629 10.341 0 4.39.385 5.901 1.627 6.377 3.165 1.215 4.37-1.302 4.443-9.282.077-8.294 1.732-14.992 1.86-7.525.154 8.998 1.39 16.582 2.789 17.119 2.649 1.017 3.633-1.662 4.207-11.448l.574-9.774 3.25-.313c1.787-.173 3.25-.623 3.249-1 0-.378-1.34-5.637-2.977-11.687s-2.987-11.653-2.999-12.45c-.041-2.606 2.141.515 2.871 4.107.508 2.498 1.275 3.428 3.033 3.681 2.234.321 2.327.11 1.843-4.189-1.389-12.317-13.135-21.973-21.27-17.485"/></svg>