<svg xmlns="http://www.w3.org/2000/svg" width="256" height="256"><path fill-opacity=".016" d="M0 128.004v128.004l128.25-.254 128.25-.254.254-127.75L257.008 0H0v128.004m.485.496c0 70.4.119 99.053.265 63.672.146-35.38.146-92.98 0-128C.604 29.153.485 58.1.485 128.5" fill="#1976D2" fill-rule="evenodd"/><path fill-opacity=".35" d="M105.555 1.549C73.369 7.622 45.124 25.095 25.618 51 13.218 67.468 5 86.496 1.433 107c-2.427 13.953-1.557 38.062 1.841 51 5.181 19.723 12.497 34.553 24.674 50.012 36.23 45.996 101.566 61.152 154.722 35.89 31.07-14.766 55.971-42.763 66.761-75.064 2.937-8.793 5.569-20.589 5.569-24.962 0-1.742.418-2.735 1-2.376.65.402.995-4.736.985-14.691-.009-8.42-.362-14.764-.786-14.097-.437.688-1.32-2.288-2.044-6.887-6.824-43.372-40.07-83.14-82.155-98.272-15.096-5.428-22.356-6.687-41-7.108-12.79-.289-19.638.008-25.445 1.104m.623 7.898C82.326 13.963 60.383 25.617 43 43 19.636 66.364 8 94.45 8 127.479c0 21.719 3.624 37.002 13.241 55.836 16.93 33.157 47.858 55.936 85.693 63.113 11.97 2.271 31.801 2.071 44.143-.444 43.164-8.796 77.104-38.578 90.903-79.766 14.404-42.992 3.075-91.27-28.926-123.272-15.7-15.699-33.576-25.757-57.054-32.1-9.875-2.668-38.826-3.481-49.822-1.399M126 37.739c-1.632.611-29.935 17.719-66.926 40.454-12.884 7.919-24.305 15.576-25.38 17.015-2.266 3.035-1.766 6.72 1.331 9.817 2.94 2.94 7.642 2.477 13.975-1.375 3.025-1.84 21.834-13.314 41.797-25.498C110.761 65.969 127.561 56 128.132 56c.57 0 6.736 3.55 13.702 7.888 44.223 27.542 70.847 43.106 73.742 43.109 3.748.004 7.674-3.797 7.674-7.429 0-4.328-2.598-6.829-14.62-14.068l-11.623-7-.004-15.286L197 47.928l-9.75.286-9.75.286-.5 8.767-.5 8.768-3.5-2.37c-7.226-4.892-41.723-25.439-43.573-25.952-1.06-.295-2.602-.282-3.427.026M81.217 98.561c-2.479 1.736-5.217 6.453-5.217 8.988 0 3.065 3.016 8.029 5.92 9.745 6.825 4.031 13.789.865 16.429-7.469.892-2.816-1.271-8.618-4.018-10.78-3.157-2.482-9.906-2.732-13.114-.484m78.283 3.6c-3.658 2.011-5.455 5.19-5.478 9.689-.018 3.629.541 4.913 3.378 7.75 3.598 3.598 7.096 4.303 12.034 2.425 2.977-1.132 6.557-6.492 6.562-9.825.013-7.863-9.702-13.776-16.496-10.039M.402 128c0 8.525.154 12.012.341 7.75.188-4.262.188-11.237 0-15.5-.187-4.263-.341-.775-.341 7.75m77.098-5.497c-5.06 1.79-11.014 8.083-12.412 13.12-.592 2.133-1.079 10.289-1.082 18.127-.005 12.921.181 14.437 1.994 16.25 2.298 2.298 5.262 2.594 6.847.684.632-.761 1.224-6.983 1.404-14.75.172-7.389.411 2.553.531 22.093.24 39.079.377 39.973 6.12 39.973 5.712 0 6.077-1.481 6.311-25.579l.213-21.921.537 22.788c.581 24.676.579 24.665 6.23 24.697 5.358.03 5.807-2.083 5.807-27.318 0-22.624.022-22.861 1.895-20.548 1.631 2.014 2.294 2.201 4.75 1.338l2.855-1.003.285-16.977c.157-9.337.045-17.955-.25-19.15-.912-3.707-5.728-8.508-10.994-10.96-5.876-2.736-14.722-3.1-21.041-.864m74.85 4.425c-3.517 2.145-5.261 6.092-10.219 23.137-4.255 14.627-4.724 18.199-2.66 20.263 3.658 3.658 6.04.951 9.99-11.35 1.851-5.763 3.405-9.639 3.452-8.613.048 1.026-2.388 9.617-5.413 19.091-3.025 9.474-5.5 17.747-5.5 18.385 0 .75 2.118 1.159 6 1.159h6v13.3c0 9.011.387 13.687 1.2 14.5 1.901 1.901 6.592 1.458 7.765-.734.569-1.064 1.123-7.702 1.229-14.75l.195-12.816.555 13.5c.306 7.425.92 14.063 1.365 14.75 1.207 1.865 6.147 1.509 8.036-.579 1.357-1.499 1.655-4.112 1.655-14.5V189h6.107c4.475 0 5.979-.334 5.628-1.25-2.64-6.881-11.738-37.486-11.501-38.686.17-.86 1.372 2.036 2.67 6.436 4.546 15.407 6.036 17.673 10.168 15.461 3.367-1.802 2.171-9.082-5.208-31.684-4.247-13.009-5.909-14.278-18.691-14.273-7.775.003-10.291.38-12.823 1.924M120 157c-3.938 3.938-1.358 10 4.257 10 5.508 0 7.977-7.322 3.52-10.443-2.991-2.095-5.374-1.96-7.777.443m-3.193 12.75c-.826.963-1.852 2.359-2.278 3.104-1.385 2.418-5.24 17.61-4.795 18.896.547 1.579 4.266 1.652 4.266.083 0-.641.23-.937.511-.656s-.169 2.438-1 4.793c-2.163 6.131-1.973 7.03 1.489 7.03h3v7.031c0 7.601 1.353 9.478 5.132 7.118 1.281-.799 1.868-.827 1.868-.088 0 .593 1.013.934 2.25.759 2.065-.294 2.274-.917 2.544-7.57l.294-7.25h2.956c3.474 0 3.84-1.948 1.443-7.686-.832-1.991-1.282-3.852-1-4.134.282-.282.513.012.513.653 0 .642.963 1.167 2.139 1.167 1.969 0 2.092-.38 1.55-4.75-.935-7.532-3.633-15.285-6.218-17.87-3.053-3.053-12.244-3.448-14.664-.63" fill="#1976D2" fill-rule="evenodd"/><path fill-opacity=".135" d="M108 1.651c-5.225.799-14.072 2.979-19.66 4.844C44.09 21.258 12.335 56.917 2.401 103c-2.562 11.885-2.562 38.115 0 50 5.586 25.914 16.657 46.221 35.504 65.129 23.033 23.106 50.605 35.516 83.351 37.517 53.675 3.278 104.922-29.554 125.41-80.347 3.991-9.894 8.311-27.594 8.325-34.108.005-2.616.402-4.066 1.009-3.691.646.399.975-3.389.93-10.691-.045-7.25-.379-10.591-.93-9.309-.657 1.528-.878.938-.939-2.5-.113-6.406-4.303-24.102-7.933-33.5-11.081-28.692-34.536-54.171-63.032-68.471C162.223 2.053 133.463-2.247 108 1.651m4.5 6.423c-25.369 3.492-48.997 14.852-67.409 32.408-11.068 10.555-19.043 21.427-25.647 34.966-16.269 33.352-16.269 71.752 0 105.104 16.884 34.615 48.236 58.597 86.462 66.137 11.561 2.281 32.706 2.265 44.369-.034 24.386-4.805 45.262-15.942 62.85-33.53 23.442-23.442 35.227-51.92 35.227-85.125 0-33.223-11.815-61.761-35.227-85.091C195.41 25.256 175.948 14.7 151.5 9.483c-8.913-1.902-29.91-2.661-39-1.409m.5 37.536C58.898 78.484 36.252 92.561 34.75 94.252 30.771 98.73 34.229 107 40.08 107c2.832 0 3.518-.396 51.74-29.846l36.319-22.181 10.434 6.55c5.739 3.602 17.746 10.965 26.681 16.361 8.935 5.396 23.392 14.154 32.125 19.463 8.733 5.309 16.966 9.653 18.295 9.653 3.328 0 7.326-4.239 7.326-7.767 0-3.793-3.144-6.63-15.75-14.209L197 78.862V49h-19v8.5c0 4.941-.414 8.5-.99 8.5-.544 0-4.032-1.94-7.75-4.311-18.327-11.688-39.312-23.688-41.41-23.681-1.293.004-7.975 3.425-14.85 7.602M80.66 99.993c-3.189 2.801-3.66 3.79-3.66 7.688 0 3.61.564 5.036 2.923 7.396C82.316 117.47 83.69 118 87.5 118c13.459 0 14.291-18.878.91-20.672-3.578-.48-4.547-.147-7.75 2.665m79.728 1.941c-3.276 1.396-6.39 6.012-6.373 9.451.047 9.968 11.412 14.915 18.342 7.985 4.33-4.329 3.845-11.266-1.095-15.663-2.394-2.131-7.919-3.032-10.874-1.773M.378 128c0 6.325.163 8.912.361 5.75.198-3.163.198-8.338 0-11.5-.198-3.163-.361-.575-.361 5.75m77.838-5.17c-2.907 1.037-6.369 2.904-7.694 4.149-4.866 4.572-5.522 7.584-5.522 25.365 0 15.961.078 16.597 2.223 18.099 2.768 1.939 3.253 1.938 5.206-.014 1.266-1.267 1.571-4.081 1.571-14.5 0-7.953.385-12.929 1-12.929.648 0 1 12.767 1 36.3 0 26.9.311 36.611 1.2 37.5 1.615 1.615 4.986 1.515 7.359-.218 1.793-1.309 1.979-3.118 2.441-23.75.389-17.391.699-21.23 1.398-17.353.494 2.738.629 12.458.301 21.6-.654 18.186-.028 20.921 4.786 20.921 5.507 0 5.515-.059 5.515-39.071 0-23.286.352-35.929 1-35.929.617 0 1 5.155 1 13.465 0 12.587.135 13.537 2.067 14.571 1.614.863 2.615.747 4.562-.529l2.496-1.635-.313-17.767c-.309-17.583-.34-17.805-3.035-21.334-5.63-7.374-18.551-10.514-28.561-6.941m76.172 3.15c-4.894 1.978-8.726 10.92-14.422 33.656-1.922 7.673-1.992 8.767-.645 10.113.951.951 2.408 1.285 3.937.901 2.107-.529 2.901-2.16 6.022-12.38 2.518-8.243 3.614-10.77 3.658-8.432.034 1.836-2.413 11.194-5.438 20.795-3.025 9.602-5.5 17.662-5.5 17.912s2.7.455 6 .455h6v12.845c0 11.174.238 13.06 1.829 14.5 2.506 2.268 4.764 2.075 6.614-.568 1.204-1.718 1.557-5.006 1.557-14.5 0-7.518.388-12.277 1-12.277.617 0 1 5.1 1 13.3 0 13.959.499 15.7 4.5 15.7s4.5-1.741 4.5-15.7V189h6c3.746 0 6-.419 6-1.115 0-.613-2.475-8.867-5.5-18.341-4.711-14.755-6.82-24.197-4.997-22.374.277.277 1.9 5.189 3.606 10.917 3.456 11.6 4.33 13.143 7.201 12.711 4.988-.749 4.585-5.178-2.529-27.798-3.675-11.688-5.923-15.505-9.957-16.912-3.653-1.273-17.373-1.346-20.436-.108m-34.915 32.05c-2.102 2.322-1.244 6.465 1.724 8.328 2.562 1.608 7.083-.37 8.218-3.596 1.204-3.425-1.468-6.762-5.415-6.762-1.48 0-3.517.914-4.527 2.03m.69 10.671c-2.791.367-3.639 1.124-5.181 4.619-3.136 7.109-5.425 17.637-4.119 18.943 1.498 1.498 2.707.223 4.541-4.787 2.506-6.847 1.724-1.204-.904 6.524-1.375 4.043-2.5 7.496-2.5 7.675 0 .179 1.35.325 3 .325h3v6.418c0 3.53.273 7.13.607 8 .805 2.098 3.036 2.011 4.343-.168 1-1.667 1.1-1.667 2.1 0 1.307 2.179 3.538 2.266 4.343.168.334-.87.607-4.47.607-8V202h3.107c2.339 0 2.966-.368 2.536-1.487-2.024-5.276-5.816-18.673-5.402-19.087.275-.275 1.346 2.104 2.379 5.287 1.88 5.787 4.474 7.754 5.207 3.949.426-2.217-4.21-17.474-6.032-19.849-1.433-1.866-6.501-2.787-11.632-2.112" fill="#1976D2" fill-rule="evenodd"/><path fill-opacity=".603" d="M116 .964C85.668 4.092 59.581 16.463 37.929 37.986 13.467 62.304.681 93.202.681 128c0 55.166 34.706 103.426 86.969 120.936 25.258 8.462 55.376 8.484 80.522.06 32.16-10.775 58.958-34.167 74.28-64.842 7.066-14.144 12.528-35.029 12.563-48.035.011-3.997.295-5.186.985-4.119.677 1.047.944-.464.885-5-.062-4.758-.299-5.83-.885-4-.616 1.922-.824 1.202-.9-3.119-.239-13.465-5.656-34.039-12.648-48.035-17.871-35.778-50.726-61.095-89.218-68.751C141.584.778 126.289-.097 116 .964m-8.5 7.658c-25.395 4.581-47.01 15.833-65.028 33.85C19.345 65.6 7.008 95.352 7.008 128c0 57.269 39.907 106.433 96.267 118.597 10.106 2.182 29.442 2.903 40.006 1.493 26.278-3.509 51.499-15.955 70.176-34.633 27.276-27.275 40.134-66.601 34.047-104.129-2.945-18.158-8.797-33.069-18.983-48.371-15.688-23.565-40.04-41.578-66.654-49.305-15.973-4.638-38.494-5.893-54.367-3.03m-1.559 41.734C64.789 75.232 37.446 92.212 35.25 94.255c-4.014 3.735-2.132 10.805 3.235 12.152 3.344.839 2.653 1.22 48.503-26.748 21.719-13.248 40.169-24.085 41-24.082.832.003 7.812 3.88 15.512 8.615 37.262 22.915 64.358 39.347 67.769 41.099 3.188 1.638 4.214 1.752 6.664.737 1.643-.681 3.442-2.52 4.159-4.251 1.986-4.794-.241-7.389-13.125-15.296L197.5 79.444l-.276-15.222L196.948 49H178v9c0 4.95-.216 9-.481 9-.264 0-2.958-1.585-5.987-3.523C156.163 53.646 129.433 38 128.005 38c-.893 0-10.822 5.56-22.064 12.356M83.378 98.437c-10.632 4.627-7.275 19.48 4.417 19.541 10.931.056 13.817-15.318 3.671-19.557-4.077-1.703-4.138-1.703-8.088.016m77.585 3.944c-4.284 1.384-7.466 7.052-6.48 11.542 1.765 8.035 11.779 10.969 17.594 5.154 7.773-7.773-.459-20.14-11.114-16.696M.32 128c0 3.575.182 5.037.403 3.25.222-1.787.222-4.713 0-6.5-.221-1.787-.403-.325-.403 3.25m75.126-3.517c-2.866 1.439-5.997 4.035-7.446 6.172-2.384 3.518-2.515 4.476-2.817 20.585-.338 18.046.044 19.76 4.404 19.76 3.639 0 4.413-2.884 4.413-16.434 0-7.711.386-12.566 1-12.566.648 0 1 12.782 1 36.345 0 35.475.049 36.39 2.068 38.217 1.89 1.71 2.3 1.742 4.75.368l2.682-1.504.5-22.215c.676-30.026 2.344-29.878 3 .266l.5 22.977 2.72.955c2.154.757 3.142.574 4.75-.882 1.969-1.782 2.03-2.926 2.03-38.182 0-23.563.352-36.345 1-36.345.617 0 1 5.1 1 13.3 0 9.011.387 13.687 1.2 14.5 1.837 1.837 5.608 1.428 6.765-.734 1.318-2.464 1.349-29.394.039-34.11-1.182-4.257-6.124-9.279-11.222-11.405-5.947-2.481-16.407-2.044-22.336.932m77.297 2.601c-.966.563-2.627 2.729-3.691 4.814-2.46 4.821-8.997 27.135-9.74 33.244-.504 4.141-.33 4.717 1.609 5.333 1.196.38 2.768.198 3.493-.403.724-.602 2.84-6.262 4.702-12.578 1.861-6.317 3.722-11.487 4.134-11.49 1.758-.01.415 6.365-4.75 22.54-3.025 9.474-5.5 17.728-5.5 18.341 0 .685 2.121 1.115 5.5 1.115h5.5v13c0 11.667.205 13.205 2 15 2.317 2.317 4.299 2.549 5.847.684.635-.764 1.21-6.911 1.373-14.668.201-9.587.633-13.469 1.53-13.767.959-.319 1.25 2.732 1.25 13.096 0 10.95.298 13.81 1.571 15.084 1.995 1.994 3.863 1.994 5.858 0 1.272-1.272 1.571-4.122 1.571-14.953v-13.381l5.904-.297 5.905-.298-5.416-17c-3.631-11.401-5.325-18.317-5.142-21 .265-3.888.337-3.79 2.553 3.5 4.907 16.14 5.536 17.5 8.093 17.5 3.806 0 4.14-3.087 1.463-13.542-4.146-16.194-7.502-25.254-10.445-28.196-2.663-2.664-3.127-2.761-13.088-2.732-5.68.017-11.118.491-12.084 1.054M120.2 157.2c-1.699 1.699-1.488 6.369.371 8.229 1.84 1.839 2.435 1.899 5.864.596 2.043-.777 2.565-1.651 2.565-4.3 0-3.999-1.508-5.725-5-5.725-1.43 0-3.14.54-3.8 1.2m-3.492 13.57c-2.359 2.607-7.198 20.14-5.913 21.425 1.629 1.629 2.831.227 4.215-4.919 1.38-5.128 2.99-7.809 2.99-4.976 0 .935-1.302 5.75-2.894 10.7l-2.895 9h6.705l.292 7.75c.23 6.092.613 7.75 1.792 7.75s1.562-1.658 1.792-7.75c.161-4.262.704-7.75 1.208-7.75s1.047 3.488 1.208 7.75c.23 6.092.613 7.75 1.792 7.75s1.562-1.658 1.792-7.75l.292-7.75h6.705l-2.944-9.154c-1.619-5.034-2.787-10.097-2.595-11.25.22-1.323 1.028.22 2.189 4.181 1.935 6.601 3.063 8.121 4.766 6.418 1.285-1.285-3.554-18.818-5.913-21.425-1.175-1.298-3.118-1.77-7.292-1.77-4.174 0-6.117.472-7.292 1.77" fill="#1976D2" fill-rule="evenodd"/></svg>