<svg xmlns="http://www.w3.org/2000/svg" width="256" height="256"><path fill="#1976D2" fill-opacity=".016" fill-rule="evenodd" d="M0 128.004v128.004l128.25-.254 128.25-.254.254-127.75L257.008 0H0zm.485.496c0 70.4.119 99.053.265 63.672s.146-92.98 0-128S.485 58.1.485 128.5"/><path fill="#1976D2" fill-opacity=".143" fill-rule="evenodd" d="M80.724 72.015C56.951 87.974 36.263 102.187 34.75 103.6c-2.412 2.254-2.75 3.311-2.75 8.601 0 5.443.186 5.984 1.908 5.533 1.05-.274 21.493-13.585 45.429-29.579s44.678-29.372 46.092-29.727c1.414-.354 3.728-.354 5.142 0 1.414.355 22.155 13.732 46.092 29.727 23.936 15.994 44.379 29.305 45.429 29.579 1.72.45 1.908-.089 1.908-5.481 0-7.479-.465-7.979-18.465-19.852L192.041 83.5l-.021-15.55c-.014-10.737-.391-15.921-1.22-16.75-1.441-1.441-16.583-1.621-18.8-.224-1.051.663-1.65 3.346-2 8.969l-.5 8.024-18.814-12.484C134.542 44.772 131.31 43 127.91 43c-3.532 0-8.655 3.15-47.186 29.015M128 75.706c-4.333 1.584-9 8.239-9 12.833v2.639l-2.929-2.464c-10.145-8.538-25.415 1.213-21.89 13.978 1.185 4.294 6.08 9.286 9.175 9.358 1.539.036.911.647-2.226 2.167-5.645 2.736-13.284 10.404-16.045 16.107-1.194 2.466-2.679 7.217-3.3 10.555-1.373 7.384-.173 11.121 3.571 11.121 3.164 0 4.051-1.332 5.661-8.5.741-3.3 1.516-5.25 1.723-4.333.206.917-1.728 9.345-4.298 18.728s-4.41 17.746-4.089 18.583c.401 1.046 1.97 1.522 5.012 1.522h4.427l.651 14.75c.357 8.113.859 15.75 1.115 16.971.909 4.339 7.33 5.405 8.978 1.491.396-.942 1.016-7.112 1.377-13.712l.656-12 .766 11c.421 6.05.856 11.885.965 12.967.11 1.081 1.428 2.653 2.929 3.493 2.526 1.413 2.874 1.379 4.688-.467 1.581-1.607 2.075-3.928 2.555-11.993.327-5.5.84-12.812 1.141-16.25l.546-6.25h4.362c2.398 0 4.638-.448 4.976-.995s-1.391-8.309-3.843-17.25c-4.822-17.589-5.861-22.365-4.585-21.081.451.454 1.418 3.526 2.149 6.826 1.312 5.928 1.37 6 4.805 6h3.477l-.042-7.565c-.034-6.17-.549-8.601-2.794-13.19-2.974-6.078-12.165-15.331-16.246-16.355-3.216-.807-3.021-1.589.844-3.39 3.983-1.856 7.738-7.316 7.738-11.251v-2.956l3.535 3.103c2.907 2.553 4.39 3.104 8.352 3.104 14.843 0 20.358-18.392 7.809-26.044-3.051-1.86-9.335-2.479-12.696-1.25m-.152 30.07c-2.009.948-5.231 3.138-7.162 4.866l-3.509 3.141 5.186 5.359c5.903 6.099 9.281 12.567 10.77 20.622 1.747 9.448-.266 14.236-5.984 14.236-1.916 0-1.882.371 1.007 11.09 1.644 6.1 2.745 11.725 2.448 12.5-.358.932-2.109 1.41-5.162 1.41h-4.621l.339 15.349c.361 16.276 1.029 18.666 5.212 18.636 4.527-.033 5.077-1.328 6.246-14.697l1.117-12.788.133 11.527c.144 12.593 1.315 15.973 5.534 15.973 4.024 0 5.433-2.794 5.68-11.263.124-4.269-.068-8.057-.428-8.416-.36-.36-.64-1.367-.624-2.238.026-1.341.187-1.315 1.05.167.561.963 2.067 1.75 3.348 1.75 2.219 0 2.369.458 3.2 9.75.85 9.501.936 9.75 3.372 9.75 1.92 0 2.569-.58 2.799-2.5.582-4.867 1.557-5.553 2.133-1.5.49 3.449.913 4 3.068 4 2.432 0 2.524-.261 3.391-9.653.882-9.551.922-9.66 3.75-10.225 3.375-.675 3.395-.924.887-10.584-1.066-4.104-1.733-7.666-1.483-7.917s.455.071.455.712c0 .642.87 1.167 1.933 1.167 3.774 0 3.762-6.668-.026-14.153-2.013-3.978-8.449-9.824-10.885-9.886-.837-.022-.12-.65 1.594-1.395 3.334-1.452 5.767-6.296 4.693-9.344-3.286-9.324-16.309-7.792-16.309 1.918 0 3.66 3.233 7.854 6.064 7.866.79.004.086.708-1.564 1.567-6.79 3.531-11.237 10.149-11.721 17.441-.209 3.148.169 4.494 1.499 5.347 1.395.893 1.985.815 2.735-.361 1.328-2.082 1.189-.365-.443 5.5-1.266 4.55-1.399 4.704-1.481 1.71-.049-1.81-1.064-4.609-2.255-6.22-1.997-2.701-2.073-3.342-.984-8.21.65-2.904 2.072-6.63 3.159-8.28 1.644-2.494 1.998-4.854 2.1-14 .068-6.05.329-10.213.58-9.25.589 2.254 1.583 2.212 3.73-.16.95-1.051 2.864-2.195 4.252-2.544 2.152-.54 2.429-1.032 1.88-3.34-2.18-9.163-10.686-20.641-17.878-24.122-5.194-2.515-8.007-2.582-12.825-.308m40.231 64.807c.048 1.165.285 1.402.604.605.289-.722.253-1.585-.079-1.917s-.568.258-.525 1.312m-19 1c.048 1.165.285 1.402.604.605.289-.722.253-1.585-.079-1.917s-.568.258-.525 1.312m-4 16c.048 1.165.285 1.402.604.605.289-.722.253-1.585-.079-1.917s-.568.258-.525 1.312"/><path fill="#1976D2" fill-opacity=".554" fill-rule="evenodd" d="M122.746 44.574c-7.271 3.945-87.874 58.771-89.213 60.683-1.691 2.413-2.102 11.273-.567 12.222.531.328 20.443-12.4 44.25-28.286 23.806-15.885 44.267-29.402 45.468-30.037 2.799-1.481 7.833-1.481 10.632 0 1.201.635 21.662 14.152 45.468 30.037s43.719 28.614 44.25 28.286c1.778-1.099 1.107-10.031-.951-12.646-1.054-1.34-8.254-6.64-16-11.778L192 83.714V68.512C192 49.955 192.027 50 180.871 50c-4.477 0-7.952.481-8.671 1.2-.741.741-1.2 4.378-1.2 9.5 0 4.565-.249 8.3-.553 8.3s-8.067-5.116-17.25-11.368c-23.08-15.714-24.462-16.307-30.451-13.058m4.375 32.136c-3.6 1.774-6.671 5.966-7.656 10.45-.79 3.595 2.553 11.15 5.903 13.346C134.748 106.651 147 100.135 147 89c0-10.538-10.393-16.963-19.879-12.29m-26.822 11.25c-11.141 6.792-6.413 24.047 6.586 24.036 6.397-.005 10.458-2.708 12.636-8.411 1.655-4.334 1.657-4.829.047-9.045-2.998-7.852-12.092-10.957-19.269-6.58m27.201 17.999c-1.1.458-3.786 2.392-5.97 4.296l-3.969 3.464 4.888 4.887c6.441 6.442 10.686 15.543 11.307 24.243.529 7.421-1.243 11.092-5.506 11.409-2.783.207-2.791-.073.302 10.928 3.378 12.012 3.162 13.179-2.552 13.814l-4.5.5.21 14c.254 16.908.537 18.273 3.974 19.136 4.546 1.141 6.296-2.263 6.425-12.497.059-4.751.443-11.339.853-14.639.699-5.637.759-5.364.99 4.5.135 5.775.539 12.966.897 15.98.573 4.824.981 5.595 3.417 6.448 2.19.767 3.127.607 4.5-.768 1.406-1.409 1.749-3.667 1.815-11.949.044-5.616.419-12.536.832-15.379.663-4.557.492-5.427-1.447-7.366-1.816-1.816-2.119-3.02-1.743-6.934.25-2.604 1.427-6.744 2.616-9.199 1.841-3.803 2.173-6.306 2.243-16.899.076-11.637.172-12.226 1.502-9.186 1.413 3.233 1.429 3.239 3.393 1.275 1.084-1.084 3.122-2.261 4.528-2.614 2.907-.729 2.829-1.494-1.031-10.127-2.544-5.688-10.3-14.624-14.643-16.869-2.973-1.538-10.141-1.782-13.331-.454m-25.414 8.192c-2.004.582-5.961 3.541-9.587 7.17C85.155 128.671 82 135.793 82 145.018c0 5.599.154 5.983 2.656 6.61 2.949.741 5.344-1.479 5.344-4.953 0-2.735 2.173-9.675 3.029-9.675 1.046 0-.443 7.062-5.056 23.978-2.252 8.26-3.815 15.468-3.475 16.02.341.551 2.618 1.002 5.061 1.002s4.469.113 4.502.25c.034.137.438 7.348.897 16.023.52 9.812 1.299 16.331 2.061 17.25 1.515 1.825 5.364 1.925 6.816.176.593-.715 1.413-8.028 1.82-16.25.822-16.585 2.182-14.958 2.287 2.736.073 12.151.971 14.815 4.998 14.815 1.824 0 3.355-.682 3.927-1.751.515-.963 1.266-8.838 1.669-17.5l.732-15.749h4.397c3.142 0 4.576-.465 5.023-1.63.344-.896-1.475-9.334-4.043-18.75s-4.664-17.998-4.657-19.07c.022-3.582 1.911-.2 3.297 5.902 1.471 6.48 3.601 8.756 6.465 6.91 1.409-.908 1.719-2.429 1.592-7.796-.401-16.987-16.457-33.13-29.256-29.415m51.369 23.304c-5.123 5.122-1.438 13.545 5.927 13.545 4.169 0 7.618-3.703 7.618-8.18 0-3.926-3.984-7.82-8-7.82-1.948 0-3.998.907-5.545 2.455m-.382 16.991c-5.724 4.223-8.518 9.307-8.547 15.554-.033 6.976 2.303 7.62 4.336 1.195 2.493-7.88 2.269-3.576-.361 6.936-1.427 5.703-2.829 11.156-3.115 12.119-.414 1.39.089 1.75 2.44 1.75 3.713 0 4.17 1.182 4.189 10.832.017 8.437.776 10.545 3.605 10.007 1.528-.291 1.929-1.385 2.139-5.848.467-9.895 1.65-11.228 2.22-2.501.443 6.795.802 8.044 2.401 8.349 2.715.517 3.587-1.532 3.605-8.464.023-9.395.86-12.375 3.473-12.375 1.215 0 2.454-.246 2.754-.546s-.77-5.754-2.379-12.12-2.69-11.81-2.403-12.098c.288-.287.697.105.91.871 1.624 5.845 2.395 7.393 3.684 7.393 1.128 0 1.472-1.323 1.457-5.613-.015-4.532-.571-6.409-2.889-9.754-3.277-4.729-8.202-8.133-11.766-8.133-1.34 0-3.929 1.101-5.753 2.446"/><path fill="#1976D2" fill-opacity=".447" fill-rule="evenodd" d="M118.347 47.75c-11.93 7.436-81.502 54.405-83.402 56.305C33.49 105.51 33 107.385 33 111.5c0 3.183.443 5.5 1.052 5.5.579 0 20.564-13.059 44.411-29.021 23.846-15.961 44.748-29.505 46.447-30.098 2.208-.769 3.972-.769 6.18 0 1.699.593 22.601 14.137 46.447 30.098C201.384 103.941 221.369 117 221.948 117c.61 0 1.052-2.332 1.052-5.548 0-6.818-.144-6.966-18.457-19.046L191.041 83.5l-.021-15.715C190.997 49.571 191.239 50 181 50c-9.519 0-10 .512-10 10.642 0 7.507-.202 8.494-1.628 7.947-.895-.343-8.432-5.273-16.75-10.954S136.06 46.561 134.3 45.652c-5.091-2.628-9.25-2.081-15.953 2.098m11.115 28.304c-1.67.491-4.37 2.285-6 3.985-2.595 2.709-2.962 3.819-2.962 8.961 0 5.12.372 6.257 2.915 8.911 3.936 4.109 8.375 5.492 13.335 4.156 8.726-2.349 12.879-12.244 8.294-19.763-3.39-5.559-9.542-8.027-15.582-6.25m-28.4 11.773C97.393 89.795 94 95.051 94 98.767c0 4.078 2.794 9.137 6.19 11.207 8.53 5.201 19.815-.701 19.806-10.359-.005-5.319-3.092-10.339-7.486-12.175-4.569-1.91-7.341-1.816-11.448.387m26.438 18.666c-1.65.779-4.459 2.704-6.243 4.278l-3.243 2.863 5.096 5.286c6.015 6.24 9.715 13.769 10.905 22.187 1.188 8.404-1.205 13.766-6.185 13.861-1.485.028-1.347 1.224 1.244 10.782 1.603 5.912 2.917 10.83 2.92 10.929.043 1.299-3.89 3.321-6.46 3.321-3.111 0-3.347.24-3.679 3.75-.195 2.063-.13 8.85.145 15.084.429 9.72.776 11.535 2.441 12.75 2.374 1.731 2.73 1.743 4.897.158 1.444-1.056 1.856-3.953 2.564-18.04.464-9.23 1.074-17.011 1.354-17.292.281-.28.841 7.187 1.244 16.594.695 16.212.85 17.18 2.976 18.572 2.741 1.796 5.39.938 5.981-1.936 1.051-5.105 1.503-15.246.733-16.416-.472-.717-.28-3.995.439-7.484 1.189-5.77 1.141-6.355-.675-8.289-2.663-2.834-2.532-9.682.295-15.451 1.827-3.726 2.298-6.821 2.74-18 .492-12.411.917-13.745 2.604-8.175.301.993 1.062.805 3.039-.75 1.451-1.141 3.252-2.075 4.003-2.075 2.095 0 1.64-2.917-1.481-9.5-6.913-14.58-18.149-21.49-27.654-17.007m-29.809 10.588c-8.812 5.837-14.33 15.243-15.35 26.168-.485 5.199-.29 6.549 1.119 7.718 2.682 2.225 4.663.163 6.583-6.852 1.876-6.85 3.957-10.135 3.957-6.244 0 1.249-2.025 9.809-4.5 19.022S85 174.374 85 175.267c0 1.227 1.159 1.698 4.75 1.928l4.75.305.819 16.5c.887 17.895 1.498 19.765 6.081 18.614 3.201-.803 3.348-1.507 4.157-19.864.358-8.113.985-14.75 1.393-14.75s1.011 7.236 1.339 16.08c.609 16.364 1.245 18.92 4.711 18.92 3.413 0 4.18-2.732 5.116-18.218.507-8.405 1.125-15.844 1.372-16.532.27-.75 2.262-1.25 4.981-1.25 2.96 0 4.53-.433 4.527-1.25-.002-.687-2.022-8.45-4.488-17.25s-4.454-17.575-4.416-19.5l.07-3.5 1.893 4c1.041 2.2 1.904 5.205 1.919 6.679.025 2.586 2.263 5.821 4.026 5.821 1.291 0 4-2.971 4-4.388 0-3.656-2.44-13.554-4.184-16.972-2.664-5.222-10.114-13.079-14.272-15.052-5.319-2.524-10.529-2.033-15.853 1.493m56.232 20.842c-1.608 1.608-2.923 3.612-2.923 4.453 0 6.488 7.534 10.74 12.663 7.147 4.459-3.122 3.695-11.128-1.278-13.393-3.765-1.716-5.273-1.396-8.462 1.793m-3.535 19.533c-4.208 4.391-6.371 9.406-6.382 14.794-.004 1.979.496 2.75 1.787 2.75 1.278 0 2.188-1.363 3.171-4.75 2.596-8.943 2.252-.963-.412 9.546-1.404 5.536-2.552 10.547-2.552 11.135s1.289 1.069 2.864 1.069h2.863l.501 9.564c.528 10.104 1.569 12.68 4.23 10.471 1.176-.976 1.542-3.372 1.542-10.098 0-4.851.45-9.097 1-9.437.64-.395 1 2.782 1 8.819 0 7.283.352 9.728 1.542 10.716 2.661 2.209 3.702-.367 4.23-10.471l.501-9.564h2.863c3.554 0 3.571-.614.364-13-1.353-5.225-2.469-10.314-2.48-11.309-.036-3.228 1.787-.793 2.481 3.314.512 3.032 1.136 3.995 2.587 3.995 1.547 0 1.908-.716 1.89-3.75-.052-8.951-7.789-18.25-15.184-18.25-3.591 0-4.7.588-8.406 4.456"/></svg>