<?xml version="1.0" encoding="UTF-8"?>
<!DOCTYPE svg PUBLIC "-//W3C//DTD SVG 1.1//EN" "http://www.w3.org/Graphics/SVG/1.1/DTD/svg11.dtd">
<!-- Creator: CorelDRAW 2020 (64-Bit) -->
<svg xmlns="http://www.w3.org/2000/svg" xml:space="preserve" width="65.4781mm" height="75mm" version="1.1" style="shape-rendering:geometricPrecision; text-rendering:geometricPrecision; image-rendering:optimizeQuality; fill-rule:evenodd; clip-rule:evenodd"
viewBox="0 0 2238.39 2563.89"
 xmlns:xlink="http://www.w3.org/1999/xlink"
 xmlns:xodm="http://www.corel.com/coreldraw/odm/2003">
 <defs>
  <style type="text/css">
   <![CDATA[
    .fil0 {fill:#B8C3CF}
   ]]>
  </style>
 </defs>
 <g id="Layer_x0020_1">
  <metadata id="CorelCorpID_0Corel-Layer"/>
  <path class="fil0" d="M2238.39 2281.68l0 -136.02c-16.42,-33.32 -12.94,-110.2 -62.41,-220.71 -58.63,-130.95 -141.25,-224.68 -253.7,-307.4 -57.13,-42.02 -113.39,-63.06 -183.67,-95.02l211.71 29.67c-19.69,-20.16 -37.95,-27 -79.54,-71.89 -18.52,-20 -43.84,-60 -58.36,-89.62 -136.51,-278.26 -73.09,-518.9 -109.93,-782.68 -98.59,-705.89 -731.51,-723.96 -990.02,-424.36 -309.38,358.56 -89.2,820.94 -281.34,1203.1 -26.67,53.05 -68.33,112.28 -114.6,145.11l-25.18 22.58 137.48 -5.4c-9.73,11.44 -57.77,34.48 -78.51,47.56 -374.09,235.93 -442.89,759.57 -233.55,903.18 108.83,74.66 285.88,62.06 433.13,61.62 327.47,-0.97 656.43,-6.28 984.54,-2.7 137.65,1.5 347.94,16.37 474.54,-12.33 225.96,-51.23 204.2,-204.84 229.42,-264.7zm-1344.76 -673.88c-65.29,-30.7 -112.14,-50.58 -199.71,-50.99 19.57,40.79 67.58,78.1 110.3,102.35 154.92,87.92 109.99,-10.25 192.53,128.92 13.52,22.79 27.43,44.67 40.88,66.23l76.13 122.85c7.5,9.43 3.15,4.01 7.46,8.35l152.87 -245.55c12.87,-21.25 8.47,-24.09 30.01,-31.09 68.26,-22.19 105.57,-30.18 162,-67.66 30.21,-20.07 101.15,-77.64 97.21,-133.49 -89.34,-1.25 -124.56,0.44 -192.27,34.04l55.28 -120.28c-68.49,70.9 -192.64,129.68 -305.09,129.9 -66.11,0.13 -126.52,-16.44 -177.95,-41.45 -79.32,-38.57 -118.12,-84.95 -133.13,-92.69l83.48 190.57zm-257.02 -766.2c-14.94,39.43 31.79,193.5 46.71,234.59 26.19,72.08 62.02,139.22 99.04,191.69 63.49,89.98 197.75,217.84 381.93,193.76 226.73,-29.65 365.43,-263.06 415.76,-456.56 14.03,-53.93 40.94,-196.72 33.82,-252.35l-193.76 -26.09c2.82,-6.7 22.97,-18.37 33.61,-36.37 33.86,-57.29 5.63,-141.22 -28.44,-187.8l-167.71 108.9c-103.32,62.64 -269.06,144.94 -388.81,177.32 -78.07,21.11 -155.73,32.92 -232.16,52.91z"/>
 </g>
</svg>
