<?xml version="1.0" encoding="UTF-8"?>
<!DOCTYPE svg PUBLIC "-//W3C//DTD SVG 1.1//EN" "http://www.w3.org/Graphics/SVG/1.1/DTD/svg11.dtd">
<!-- Creator: CorelDRAW 2020 (64-Bit) -->
<svg xmlns="http://www.w3.org/2000/svg" xml:space="preserve" width="65.4781mm" height="75mm" version="1.1" style="shape-rendering:geometricPrecision; text-rendering:geometricPrecision; image-rendering:optimizeQuality; fill-rule:evenodd; clip-rule:evenodd"
viewBox="0 0 2195.77 2515.08"
 xmlns:xlink="http://www.w3.org/1999/xlink"
 xmlns:xodm="http://www.corel.com/coreldraw/odm/2003">
 <defs>
  <style type="text/css">
   <![CDATA[
    .fil0 {fill:#1A4C91}
   ]]>
  </style>
 </defs>
 <g id="Layer_x0020_1">
  <metadata id="CorelCorpID_0Corel-Layer"/>
  <path class="fil0" d="M2195.77 2238.24l0 -133.43c-16.1,-32.69 -12.69,-108.1 -61.22,-216.51 -57.51,-128.46 -138.56,-220.4 -248.87,-301.55 -56.04,-41.22 -111.23,-61.86 -180.17,-93.21l207.68 29.11c-19.32,-19.78 -37.23,-26.48 -78.02,-70.52 -18.17,-19.62 -43,-58.86 -57.25,-87.91 -133.91,-272.96 -71.7,-509.02 -107.84,-767.78 -96.71,-692.45 -717.58,-710.18 -971.17,-416.28 -303.49,351.73 -87.5,805.31 -275.99,1180.19 -26.17,52.04 -67.03,110.14 -112.41,142.35l-24.7 22.15 134.86 -5.3c-9.54,11.22 -56.67,33.83 -77.02,46.66 -366.97,231.43 -434.46,745.11 -229.11,885.98 106.76,73.24 280.44,60.88 424.88,60.45 321.24,-0.95 643.93,-6.16 965.79,-2.65 135.03,1.47 341.31,16.06 465.51,-12.1 221.66,-50.26 200.31,-200.94 225.05,-259.66zm-1319.16 -661.05c-64.04,-30.12 -110,-49.61 -195.91,-50.02 19.2,40.01 66.29,76.61 108.2,100.4 151.97,86.25 107.9,-10.05 188.87,126.47 13.26,22.36 26.91,43.82 40.1,64.97l74.68 120.51c7.36,9.25 3.09,3.94 7.32,8.2l149.96 -240.87c12.62,-20.85 8.31,-23.64 29.44,-30.5 66.96,-21.77 103.56,-29.6 158.92,-66.37 29.64,-19.68 99.23,-76.17 95.36,-130.95 -87.64,-1.23 -122.19,0.43 -188.61,33.39l54.23 -117.99c-67.18,69.55 -188.98,127.21 -299.28,127.42 -64.86,0.12 -124.11,-16.13 -174.56,-40.66 -77.81,-37.84 -115.87,-83.33 -130.59,-90.92l81.89 186.94zm-252.13 -751.61c-14.66,38.68 31.18,189.81 45.82,230.12 25.69,70.7 60.83,136.57 97.15,188.04 62.28,88.27 193.99,213.69 374.66,190.07 222.41,-29.08 358.48,-258.05 407.84,-447.87 13.76,-52.91 40.16,-192.97 33.18,-247.54l-190.07 -25.59c2.77,-6.57 22.53,-18.02 32.97,-35.68 33.22,-56.2 5.52,-138.53 -27.9,-184.22l-164.51 106.83c-101.36,61.45 -263.93,142.18 -381.4,173.94 -76.59,20.71 -152.77,32.29 -227.74,51.9z"/>
 </g>
</svg>
