<?xml version="1.0" encoding="UTF-8"?>
<!DOCTYPE svg PUBLIC "-//W3C//DTD SVG 1.1//EN" "http://www.w3.org/Graphics/SVG/1.1/DTD/svg11.dtd">
<!-- Creator: CorelDRAW 2020 (64-Bit) -->
<svg xmlns="http://www.w3.org/2000/svg" xml:space="preserve" width="67.2623mm" height="75mm" version="1.1" style="shape-rendering:geometricPrecision; text-rendering:geometricPrecision; image-rendering:optimizeQuality; fill-rule:evenodd; clip-rule:evenodd"
viewBox="0 0 13912.79 15513.29"
 xmlns:xlink="http://www.w3.org/1999/xlink"
 xmlns:xodm="http://www.corel.com/coreldraw/odm/2003">
 <defs>
  <style type="text/css">
   <![CDATA[
    .fil0 {fill:#B8C3CF}
   ]]>
  </style>
 </defs>
 <g id="Layer_x0020_1">
  <metadata id="CorelCorpID_0Corel-Layer"/>
  <path class="fil0" d="M-0 12565.18l0 777.13c57.28,141.36 84.43,490.22 159.64,697.95 598.75,1653.82 2923.53,1457.65 4504.33,1457.65 1418.29,0 5657.57,59.61 6768.78,-56.08 1078.11,-112.25 1849.87,-430.75 2228.74,-1201.62 412.2,-838.67 259.92,-2037.62 -46.23,-2874.76 -578.94,-1583.1 -2236.87,-2904.21 -3854.87,-2949.55 -59.67,123.88 -73.76,295.72 -143.55,421.26 -821.65,1477.71 -4640.79,1395.2 -5340.02,-25.4 -81.64,-165.87 -60.98,-167.48 -99.31,-299.55l-38.62 -99.93c-1057.76,90.87 -1802.46,498.66 -2560.31,1097.16l-502.11 517.34c-419.67,534.51 -711.27,999.63 -903.51,1691.88 -50.59,182.19 -128.47,743.56 -172.96,846.51zm6733.55 -12555.94c-1212,89.48 -2066.8,752.37 -2552.08,1415.68 -655.28,895.63 -831.18,1836.79 -668.52,3171.89 141.38,1160.44 523.44,2099.15 1085.74,2873.54 448.25,617.33 1378.66,1458.35 2627.99,1317.43 1119.83,-126.32 1866.23,-952.6 2304.41,-1642.51 558.91,-880.02 795.79,-1846.99 914.58,-3044.37 223.06,-2248.48 -1512.13,-4254.09 -3712.12,-4091.66zm-2412.52 3566.15l68.36 1026.57c-159.97,-67.22 -245.88,-160.2 -471.4,-205.15 145.78,1662.63 1169.99,3866.28 3031.65,3865.39 1757.99,-0.87 2902.14,-2050.34 3037.58,-3865.39 -202.25,42.86 -320.38,129.01 -479.59,207.73 56.18,-638.18 186.95,-1368.93 -65.92,-1976.54 -215.28,-517.36 -446.72,-297.88 -638.38,-226.04 -1330.01,498.6 -2347.76,516.7 -3683.25,7.26 -372.86,-142.23 -452.1,-223.93 -647.88,202.64 -124.17,270.51 -152.13,635.53 -151.18,963.52z"/>
 </g>
</svg>
