<?xml version="1.0" encoding="UTF-8"?>
<!DOCTYPE svg PUBLIC "-//W3C//DTD SVG 1.1//EN" "http://www.w3.org/Graphics/SVG/1.1/DTD/svg11.dtd">
<!-- Creator: CorelDRAW 2020 (64-Bit) -->
<svg xmlns="http://www.w3.org/2000/svg" xml:space="preserve" width="67.2624mm" height="75mm" version="1.1" style="shape-rendering:geometricPrecision; text-rendering:geometricPrecision; image-rendering:optimizeQuality; fill-rule:evenodd; clip-rule:evenodd"
viewBox="0 0 8540.12 9522.54"
 xmlns:xlink="http://www.w3.org/1999/xlink"
 xmlns:xodm="http://www.corel.com/coreldraw/odm/2003">
 <defs>
  <style type="text/css">
   <![CDATA[
    .fil0 {fill:#1A4C91}
   ]]>
  </style>
 </defs>
 <g id="Layer_x0020_1">
  <metadata id="CorelCorpID_0Corel-Layer"/>
  <path class="fil0" d="M0.01 7712.9l0 477.03c35.16,86.77 51.83,300.91 97.99,428.43 367.53,1015.17 1794.55,894.75 2764.9,894.75 870.59,0 3472.79,36.59 4154.89,-34.42 661.78,-68.91 1135.51,-264.41 1368.07,-737.59 253.02,-514.8 159.55,-1250.75 -28.38,-1764.62 -355.37,-971.76 -1373.06,-1782.7 -2366.24,-1810.53 -36.63,76.04 -45.28,181.53 -88.12,258.58 -504.35,907.07 -2848.66,856.42 -3277.87,-15.59 -50.11,-101.82 -37.43,-102.81 -60.96,-183.87l-23.7 -61.34c-649.28,55.78 -1106.4,306.09 -1571.6,673.47l-308.21 317.56c-257.6,328.1 -436.6,613.61 -554.61,1038.53 -31.06,111.83 -78.86,456.42 -106.17,519.61zm4133.26 -7707.23c-743.96,54.93 -1268.67,461.83 -1566.55,868.99 -402.23,549.77 -510.21,1127.48 -410.36,1947 86.78,712.31 321.3,1288.53 666.46,1763.87 275.15,378.93 846.26,895.18 1613.14,808.68 687.39,-77.54 1145.55,-584.73 1414.52,-1008.22 343.08,-540.18 488.48,-1133.74 561.4,-1868.73 136.92,-1380.18 -928.19,-2611.3 -2278.62,-2511.59zm-1480.88 2189.02l41.96 630.14c-98.2,-41.26 -150.93,-98.34 -289.36,-125.93 89.49,1020.58 718.18,2373.25 1860.92,2372.7 1079.11,-0.53 1781.43,-1258.56 1864.56,-2372.7 -124.15,26.31 -196.66,79.19 -294.39,127.51 34.48,-391.73 114.75,-840.29 -40.46,-1213.26 -132.15,-317.57 -274.21,-182.85 -391.86,-138.75 -816.4,306.05 -1441.13,317.16 -2260.89,4.46 -228.87,-87.3 -277.51,-137.45 -397.69,124.39 -76.22,166.05 -93.38,390.11 -92.8,591.44z"/>
 </g>
</svg>
